<?xml version="1.0" encoding="utf-8"?>
<!-- Generator: Adobe Illustrator 27.4.0, SVG Export Plug-In . SVG Version: 6.00 Build 0)  -->
<svg version="1.1" id="Calque_1" xmlns="http://www.w3.org/2000/svg" xmlns:xlink="http://www.w3.org/1999/xlink" x="0px" y="0px"
	 viewBox="0 0 512 512" style="enable-background:new 0 0 512 512;" xml:space="preserve">
<style type="text/css">
	.st0{fill:#D9DDDF;}
	.st1{fill:#21B2DF;}
	.st2{display:none;}
	.st3{display:inline;}
	.st4{fill:#2C3E4A;}
	.st5{fill:#E6007E;}
	.st6{display:inline;fill:#D500DF;}
</style>
<g id="LogoLight">
	<g id="Lettres">
		<path class="st0" d="M86.4,265.7c0.4,0,0.7,0.1,1.1,0.2c0.4,0.1,0.7,0.4,1,0.7l6.1,6.4c-2.7,3.5-6,6.1-10,7.9
			c-4,1.8-8.7,2.6-14.2,2.6c-5,0-9.5-0.9-13.5-2.6c-4-1.7-7.3-4.1-10.1-7.1s-4.9-6.6-6.4-10.7c-1.5-4.1-2.2-8.6-2.2-13.4
			c0-4.9,0.8-9.4,2.5-13.6c1.7-4.1,4.1-7.7,7.1-10.7c3-3,6.7-5.3,10.9-7c4.2-1.7,8.9-2.5,14-2.5c2.5,0,4.8,0.2,7,0.7
			c2.2,0.4,4.2,1,6.1,1.8c1.9,0.8,3.6,1.7,5.2,2.8c1.6,1.1,3,2.3,4.3,3.6l-5.2,6.9c-0.3,0.4-0.7,0.8-1.2,1.2
			c-0.5,0.3-1.1,0.5-1.9,0.5c-0.5,0-1.1-0.1-1.5-0.4c-0.5-0.2-1-0.5-1.5-0.9c-0.5-0.3-1.1-0.7-1.8-1.1c-0.6-0.4-1.4-0.8-2.3-1.1
			c-0.9-0.3-1.9-0.6-3.1-0.9c-1.2-0.2-2.6-0.4-4.2-0.4c-2.8,0-5.3,0.5-7.6,1.5c-2.3,1-4.3,2.4-5.9,4.2c-1.6,1.8-2.9,4-3.8,6.6
			c-0.9,2.6-1.4,5.5-1.4,8.7c0,3.4,0.5,6.4,1.4,9c0.9,2.6,2.2,4.8,3.8,6.6c1.6,1.8,3.4,3.2,5.5,4.1c2.1,0.9,4.4,1.4,6.8,1.4
			c1.4,0,2.7-0.1,3.8-0.2c1.1-0.1,2.2-0.4,3.2-0.7c1-0.3,1.9-0.8,2.8-1.3c0.9-0.5,1.8-1.2,2.7-2c0.4-0.3,0.8-0.5,1.2-0.7
			C85.5,265.8,86,265.7,86.4,265.7z"/>
		<path class="st0" d="M102.8,282.8v-66.7h8.1v27c2-2.1,4.1-3.7,6.5-5c2.4-1.3,5.1-1.9,8.2-1.9c2.5,0,4.7,0.4,6.6,1.2
			c1.9,0.8,3.5,2,4.8,3.5c1.3,1.5,2.3,3.4,2.9,5.5c0.7,2.1,1,4.5,1,7.1v29.2h-8.1v-29.2c0-3.5-0.8-6.2-2.4-8.1
			c-1.6-1.9-4-2.9-7.3-2.9c-2.4,0-4.6,0.6-6.7,1.7c-2.1,1.1-4,2.7-5.7,4.7v33.8H102.8z"/>
		<path class="st0" d="M171.2,236.2c2.7,0,5.3,0.5,7.6,1.4c2.3,0.9,4.3,2.2,6,4c1.7,1.7,3,3.9,4,6.4c1,2.5,1.4,5.5,1.4,8.7
			c0,1.3-0.1,2.1-0.4,2.5c-0.3,0.4-0.8,0.6-1.5,0.6h-30.5c0.1,2.9,0.5,5.4,1.2,7.6c0.7,2.1,1.7,3.9,3,5.4c1.3,1.4,2.8,2.5,4.5,3.2
			c1.7,0.7,3.7,1.1,5.9,1.1c2,0,3.8-0.2,5.2-0.7s2.7-1,3.8-1.5c1.1-0.5,1.9-1,2.6-1.5s1.3-0.7,1.8-0.7c0.7,0,1.2,0.3,1.5,0.8
			l2.3,2.9c-1,1.2-2.2,2.3-3.6,3.1c-1.4,0.9-2.9,1.6-4.5,2.2s-3.2,1-4.9,1.3c-1.7,0.3-3.4,0.4-5,0.4c-3.2,0-6.1-0.5-8.8-1.6
			c-2.7-1.1-5-2.6-6.9-4.7c-1.9-2.1-3.5-4.6-4.5-7.7c-1.1-3-1.6-6.5-1.6-10.5c0-3.2,0.5-6.2,1.5-9c1-2.8,2.4-5.2,4.2-7.2
			c1.8-2,4.1-3.6,6.7-4.8C164.9,236.8,167.9,236.2,171.2,236.2z M171.4,242.2c-3.9,0-7,1.1-9.2,3.4c-2.2,2.2-3.6,5.4-4.2,9.3H183
			c0-1.9-0.3-3.6-0.8-5.1c-0.5-1.6-1.3-2.9-2.3-4s-2.2-2-3.6-2.6C174.9,242.5,173.2,242.2,171.4,242.2z"/>
		<path class="st0" d="M231.8,245.1c-0.2,0.3-0.5,0.6-0.7,0.8c-0.2,0.2-0.6,0.3-1,0.3s-0.9-0.2-1.5-0.6c-0.5-0.4-1.2-0.8-2-1.2
			c-0.8-0.5-1.8-0.9-3-1.2c-1.2-0.4-2.6-0.6-4.3-0.6c-2.2,0-4.2,0.4-5.9,1.2c-1.7,0.8-3.2,2-4.3,3.5c-1.2,1.5-2,3.3-2.6,5.5
			c-0.6,2.1-0.9,4.5-0.9,7.2c0,2.8,0.3,5.2,1,7.4c0.6,2.2,1.5,4,2.7,5.4c1.1,1.5,2.5,2.6,4.2,3.3c1.6,0.8,3.5,1.2,5.5,1.2
			c2,0,3.6-0.2,4.8-0.7c1.3-0.5,2.3-1,3.2-1.6c0.8-0.6,1.5-1.1,2.1-1.6s1.1-0.7,1.6-0.7c0.7,0,1.2,0.3,1.5,0.8l2.3,2.9
			c-2,2.4-4.5,4.2-7.5,5.4c-3,1.1-6.1,1.7-9.5,1.7c-2.9,0-5.5-0.5-8-1.6s-4.6-2.6-6.4-4.6c-1.8-2-3.2-4.5-4.3-7.4
			c-1-2.9-1.6-6.3-1.6-10c0-3.4,0.5-6.6,1.4-9.5s2.3-5.4,4.2-7.5c1.8-2.1,4.1-3.7,6.8-4.9c2.7-1.2,5.8-1.8,9.2-1.8
			c3.2,0,6,0.5,8.5,1.6c2.5,1,4.7,2.5,6.6,4.4L231.8,245.1z"/>
		<path class="st0" d="M251.1,216.1v39.2h2.1c0.6,0,1.1-0.1,1.5-0.2c0.4-0.2,0.8-0.5,1.3-1l14.5-15.5c0.5-0.5,0.9-0.9,1.4-1.2
			c0.5-0.3,1.1-0.5,1.8-0.5h7.3l-16.9,18c-0.4,0.5-0.8,1-1.2,1.4c-0.4,0.4-0.9,0.7-1.4,1c0.5,0.4,1,0.8,1.5,1.2
			c0.4,0.5,0.9,1,1.2,1.6l17.9,22.6h-7.2c-0.7,0-1.2-0.1-1.7-0.4c-0.5-0.3-0.9-0.7-1.3-1.2l-15.1-18.8c-0.5-0.6-0.9-1-1.4-1.2
			c-0.5-0.2-1.1-0.3-2-0.3h-2.3v21.9H243v-66.7H251.1z"/>
		<path class="st1" d="M333.9,270.7c2.1,0,3.9-0.3,5.5-1s3-1.7,4.1-2.9c1.1-1.3,2-2.8,2.6-4.6c0.6-1.8,0.9-3.9,0.9-6.2v-39.1h15.3
			v39.1c0,4-0.7,7.8-2,11.1c-1.3,3.4-3.2,6.3-5.6,8.7c-2.4,2.4-5.4,4.3-8.9,5.7s-7.4,2-11.8,2c-4.4,0-8.4-0.7-11.9-2
			s-6.5-3.3-8.9-5.7c-2.4-2.4-4.3-5.4-5.6-8.7c-1.3-3.4-1.9-7.1-1.9-11.1v-39.1h15.3v39c0,2.3,0.3,4.4,0.9,6.2
			c0.6,1.8,1.4,3.4,2.6,4.7c1.1,1.3,2.5,2.3,4.1,2.9S331.9,270.7,333.9,270.7z"/>
		<path class="st0" d="M384.6,282.8h-11.1l4.3-56.1h11.1L384.6,282.8z"/>
		<path class="st1" d="M417.4,248.9l-20.4-32h15.3c1,0,1.7,0.1,2.2,0.4c0.5,0.3,0.9,0.7,1.2,1.3l13.1,22.2c0.2-0.4,0.3-0.8,0.5-1.1
			c0.2-0.4,0.4-0.7,0.7-1.1l11.5-19.7c0.8-1.3,1.8-1.9,3.1-1.9h14.7l-20.7,31.4l21.1,34.6h-15.3c-1,0-1.8-0.2-2.4-0.7
			s-1.1-1.1-1.5-1.7l-13.2-23.1c-0.2,0.7-0.5,1.2-0.8,1.7l-12.3,21.4c-0.4,0.6-0.8,1.2-1.4,1.7c-0.6,0.5-1.4,0.7-2.3,0.7h-14.3
			L417.4,248.9z"/>
	</g>
	<g id="Mobile">
		<g>
			<g>
				<path class="st1" d="M473.7,302.9v0.4l0,0.5c-0.1,2.7-2,5.3-4.6,6.3c-0.6,0.3-1.3,0.4-2,0.5c-0.7,0.1-1.2,0-1.8,0l-3.4,0
					l-6.9,0.1l-27.5,0.2l-55,0.3l-55,0.2l-27.5,0.1h-7.3l-0.6,0c-0.4,0-0.8-0.1-1.1-0.2c-0.8-0.2-1.5-0.4-2.2-0.8
					c-1.4-0.7-2.5-1.8-3.3-3.2c-0.4-0.7-0.7-1.4-0.8-2.2c-0.1-0.4-0.1-0.8-0.2-1.1l0-1c0-0.7-0.3-1.5-0.7-2.1
					c-0.4-0.6-1-1.1-1.7-1.4c-0.3-0.1-0.7-0.2-1.1-0.3c-0.1,0-0.2,0-0.3,0c-0.1,0-0.2,0-0.4,0h-0.9l-55-0.2l-55-0.4
					c-18.3-0.1-36.7-0.3-55-0.5c-18-0.2-35.9-0.4-53.9-0.7l3.5,6.1l-15.9-6.5l15.9-6.5l-3.5,6.1c18-0.3,35.9-0.5,53.9-0.7
					c18.3-0.2,36.6-0.4,55-0.5l55-0.4l55-0.2h0.9c0.1,0,0.3,0,0.5,0c0.2,0,0.4,0,0.6,0c0.8,0.1,1.5,0.3,2.2,0.6
					c1.4,0.6,2.7,1.6,3.6,2.9c0.9,1.3,1.4,2.8,1.5,4.3l0,0.8c0,0.2,0,0.4,0.1,0.5c0.1,0.4,0.2,0.7,0.4,1c0.4,0.6,0.9,1.2,1.6,1.5
					c0.3,0.2,0.7,0.3,1,0.4c0.2,0,0.4,0.1,0.6,0.1l0.3,0h7.3l27.5,0.1l55,0.2l55,0.3l27.5,0.2l6.9,0.1l3.4,0c1.2,0,2.1,0.1,2.9-0.3
					c1.7-0.6,3-2.3,3.2-4.2l0-0.3v-0.4l0-2.6l0-3.4l0.2-27.5l0.1-13.7l0-13.8l0.1-27.5l0-3.4v-1.7c0-0.6,0-1.1,0-1.6
					c-0.2-2.1-1.8-3.9-3.7-4.5c-0.5-0.1-1-0.3-1.5-0.3c-0.5,0-1.1,0-1.7,0l-3.4,0l-6.9,0l-27.5,0.1l-27.5,0.3l-55,0.6l-27.5,0.1
					l-13.7,0l-6.9,0h-0.9c-0.3,0-0.6,0-0.8,0c-0.4,0-0.8,0.1-1.2,0.2c-0.8,0.2-1.5,0.7-2,1.3c-0.5,0.6-0.9,1.4-1,2.2
					c0,0.2,0,0.4,0,0.6v0.9l0,1.7l0,6.9l0,4.8c0.7,0.1,1.3,0.4,1.7,0.8c0.5,0.5,0.8,1.2,0.8,2v48.5c0,1.6-1.2,2.8-2.8,2.9
					c0,3.2,0,6.4-0.1,9.7l0,3.4c0,0.5,0,1.2,0,1.7c0,0.4,0.1,0.9,0.2,1.3c0.5,1.7,2.1,3.1,3.9,3.3c0.2,0,0.4,0,0.7,0l0.9,0l1.7,0
					l3.4,0l6.9,0.1c17.6,0.1,35.2,0.4,52.8,0.7l-2.3-5.5l14,5.9l-14,5.9l2.3-5.5c-17.6,0.3-35.2,0.6-52.8,0.7l-6.9,0.1l-3.4,0
					l-1.7,0l-0.9,0c-0.3,0-0.7,0-1,0c-2.8-0.3-5.3-2.3-6.1-5c-0.2-0.7-0.4-1.3-0.4-2c0-0.7,0-1.2,0-1.8l0-3.4
					c-0.1-9.2-0.1-18.3-0.2-27.5l-0.1-27.5l-0.1-13.7l0-6.9l0-1.7v-0.9c0-0.3,0-0.7,0.1-1.1c0.2-1.5,0.8-2.9,1.7-4
					c0.9-1.1,2.2-2,3.6-2.5c0.7-0.2,1.4-0.4,2.2-0.4c0.4,0,0.6,0,0.9,0h0.9l6.9,0l13.7,0l27.5,0.1l55,0.6l27.5,0.3l27.5,0.2l6.9,0
					l3.4,0c0.6,0,1.1,0,1.7,0c0.6,0,1.2,0.1,1.8,0.3c2.4,0.8,4.3,3,4.5,5.5c0.1,0.7,0.1,1.2,0.1,1.8l0,1.7l0,3.4l0.1,27.5l0,13.8
					l0.1,13.7l0.2,27.5l0,3.4l0,1.7L473.7,302.9z"/>
			</g>
		</g>
		<circle class="st1" cx="462.5" cy="255.8" r="6"/>
	</g>
</g>
<g id="LogoDark" class="st2">
	<g id="Lettres_00000093139038932978024250000000041847172897324716_" class="st3">
		<path class="st4" d="M86.4,265.7c0.4,0,0.7,0.1,1.1,0.2c0.4,0.1,0.7,0.4,1,0.7l6.1,6.4c-2.7,3.5-6,6.1-10,7.9
			c-4,1.8-8.7,2.6-14.2,2.6c-5,0-9.5-0.9-13.5-2.6c-4-1.7-7.3-4.1-10.1-7.1s-4.9-6.6-6.4-10.7c-1.5-4.1-2.2-8.6-2.2-13.4
			c0-4.9,0.8-9.4,2.5-13.6c1.7-4.1,4.1-7.7,7.1-10.7c3-3,6.7-5.3,10.9-7c4.2-1.7,8.9-2.5,14-2.5c2.5,0,4.8,0.2,7,0.7
			c2.2,0.4,4.2,1,6.1,1.8c1.9,0.8,3.6,1.7,5.2,2.8c1.6,1.1,3,2.3,4.3,3.6l-5.2,6.9c-0.3,0.4-0.7,0.8-1.2,1.2
			c-0.5,0.3-1.1,0.5-1.9,0.5c-0.5,0-1.1-0.1-1.5-0.4c-0.5-0.2-1-0.5-1.5-0.9c-0.5-0.3-1.1-0.7-1.8-1.1c-0.6-0.4-1.4-0.8-2.3-1.1
			c-0.9-0.3-1.9-0.6-3.1-0.9c-1.2-0.2-2.6-0.4-4.2-0.4c-2.8,0-5.3,0.5-7.6,1.5c-2.3,1-4.3,2.4-5.9,4.2c-1.6,1.8-2.9,4-3.8,6.6
			c-0.9,2.6-1.4,5.5-1.4,8.7c0,3.4,0.5,6.4,1.4,9c0.9,2.6,2.2,4.8,3.8,6.6c1.6,1.8,3.4,3.2,5.5,4.1c2.1,0.9,4.4,1.4,6.8,1.4
			c1.4,0,2.7-0.1,3.8-0.2c1.1-0.1,2.2-0.4,3.2-0.7c1-0.3,1.9-0.8,2.8-1.3c0.9-0.5,1.8-1.2,2.7-2c0.4-0.3,0.8-0.5,1.2-0.7
			C85.5,265.8,86,265.7,86.4,265.7z"/>
		<path class="st4" d="M102.8,282.8v-66.7h8.1v27c2-2.1,4.1-3.7,6.5-5c2.4-1.3,5.1-1.9,8.2-1.9c2.5,0,4.7,0.4,6.6,1.2
			c1.9,0.8,3.5,2,4.8,3.5c1.3,1.5,2.3,3.4,2.9,5.5c0.7,2.1,1,4.5,1,7.1v29.2h-8.1v-29.2c0-3.5-0.8-6.2-2.4-8.1
			c-1.6-1.9-4-2.9-7.3-2.9c-2.4,0-4.6,0.6-6.7,1.7c-2.1,1.1-4,2.7-5.7,4.7v33.8H102.8z"/>
		<path class="st4" d="M171.2,236.2c2.7,0,5.3,0.5,7.6,1.4c2.3,0.9,4.3,2.2,6,4c1.7,1.7,3,3.9,4,6.4c1,2.5,1.4,5.5,1.4,8.7
			c0,1.3-0.1,2.1-0.4,2.5c-0.3,0.4-0.8,0.6-1.5,0.6h-30.5c0.1,2.9,0.5,5.4,1.2,7.6c0.7,2.1,1.7,3.9,3,5.4c1.3,1.4,2.8,2.5,4.5,3.2
			c1.7,0.7,3.7,1.1,5.9,1.1c2,0,3.8-0.2,5.2-0.7s2.7-1,3.8-1.5c1.1-0.5,1.9-1,2.6-1.5s1.3-0.7,1.8-0.7c0.7,0,1.2,0.3,1.5,0.8
			l2.3,2.9c-1,1.2-2.2,2.3-3.6,3.1c-1.4,0.9-2.9,1.6-4.5,2.2s-3.2,1-4.9,1.3c-1.7,0.3-3.4,0.4-5,0.4c-3.2,0-6.1-0.5-8.8-1.6
			c-2.7-1.1-5-2.6-6.9-4.7c-1.9-2.1-3.5-4.6-4.5-7.7c-1.1-3-1.6-6.5-1.6-10.5c0-3.2,0.5-6.2,1.5-9c1-2.8,2.4-5.2,4.2-7.2
			c1.8-2,4.1-3.6,6.7-4.8C164.9,236.8,167.9,236.2,171.2,236.2z M171.4,242.2c-3.9,0-7,1.1-9.2,3.4c-2.2,2.2-3.6,5.4-4.2,9.3H183
			c0-1.9-0.3-3.6-0.8-5.1c-0.5-1.6-1.3-2.9-2.3-4s-2.2-2-3.6-2.6C174.9,242.5,173.2,242.2,171.4,242.2z"/>
		<path class="st4" d="M231.8,245.1c-0.2,0.3-0.5,0.6-0.7,0.8c-0.2,0.2-0.6,0.3-1,0.3s-0.9-0.2-1.5-0.6c-0.5-0.4-1.2-0.8-2-1.2
			c-0.8-0.5-1.8-0.9-3-1.2c-1.2-0.4-2.6-0.6-4.3-0.6c-2.2,0-4.2,0.4-5.9,1.2c-1.7,0.8-3.2,2-4.3,3.5c-1.2,1.5-2,3.3-2.6,5.5
			c-0.6,2.1-0.9,4.5-0.9,7.2c0,2.8,0.3,5.2,1,7.4c0.6,2.2,1.5,4,2.7,5.4c1.1,1.5,2.5,2.6,4.2,3.3c1.6,0.8,3.5,1.2,5.5,1.2
			c2,0,3.6-0.2,4.8-0.7c1.3-0.5,2.3-1,3.2-1.6c0.8-0.6,1.5-1.1,2.1-1.6s1.1-0.7,1.6-0.7c0.7,0,1.2,0.3,1.5,0.8l2.3,2.9
			c-2,2.4-4.5,4.2-7.5,5.4c-3,1.1-6.1,1.7-9.5,1.7c-2.9,0-5.5-0.5-8-1.6s-4.6-2.6-6.4-4.6c-1.8-2-3.2-4.5-4.3-7.4
			c-1-2.9-1.6-6.3-1.6-10c0-3.4,0.5-6.6,1.4-9.5s2.3-5.4,4.2-7.5c1.8-2.1,4.1-3.7,6.8-4.9c2.7-1.2,5.8-1.8,9.2-1.8
			c3.2,0,6,0.5,8.5,1.6c2.5,1,4.7,2.5,6.6,4.4L231.8,245.1z"/>
		<path class="st4" d="M251.1,216.1v39.2h2.1c0.6,0,1.1-0.1,1.5-0.2c0.4-0.2,0.8-0.5,1.3-1l14.5-15.5c0.5-0.5,0.9-0.9,1.4-1.2
			c0.5-0.3,1.1-0.5,1.8-0.5h7.3l-16.9,18c-0.4,0.5-0.8,1-1.2,1.4c-0.4,0.4-0.9,0.7-1.4,1c0.5,0.4,1,0.8,1.5,1.2
			c0.4,0.5,0.9,1,1.2,1.6l17.9,22.6h-7.2c-0.7,0-1.2-0.1-1.7-0.4c-0.5-0.3-0.9-0.7-1.3-1.2l-15.1-18.8c-0.5-0.6-0.9-1-1.4-1.2
			c-0.5-0.2-1.1-0.3-2-0.3h-2.3v21.9H243v-66.7H251.1z"/>
		<path class="st1" d="M333.9,270.7c2.1,0,3.9-0.3,5.5-1s3-1.7,4.1-2.9c1.1-1.3,2-2.8,2.6-4.6c0.6-1.8,0.9-3.9,0.9-6.2v-39.1h15.3
			v39.1c0,4-0.7,7.8-2,11.1c-1.3,3.4-3.2,6.3-5.6,8.7c-2.4,2.4-5.4,4.3-8.9,5.7s-7.4,2-11.8,2c-4.4,0-8.4-0.7-11.9-2
			s-6.5-3.3-8.9-5.7c-2.4-2.4-4.3-5.4-5.6-8.7c-1.3-3.4-1.9-7.1-1.9-11.1v-39.1h15.3v39c0,2.3,0.3,4.4,0.9,6.2
			c0.6,1.8,1.4,3.4,2.6,4.7c1.1,1.3,2.5,2.3,4.1,2.9S331.9,270.7,333.9,270.7z"/>
		<path class="st4" d="M384.6,282.8h-11.1l4.3-56.1h11.1L384.6,282.8z"/>
		<path class="st1" d="M417.4,248.9l-20.4-32h15.3c1,0,1.7,0.1,2.2,0.4c0.5,0.3,0.9,0.7,1.2,1.3l13.1,22.2c0.2-0.4,0.3-0.8,0.5-1.1
			c0.2-0.4,0.4-0.7,0.7-1.1l11.5-19.7c0.8-1.3,1.8-1.9,3.1-1.9h14.7l-20.7,31.4l21.1,34.6h-15.3c-1,0-1.8-0.2-2.4-0.7
			s-1.1-1.1-1.5-1.7l-13.2-23.1c-0.2,0.7-0.5,1.2-0.8,1.7l-12.3,21.4c-0.4,0.6-0.8,1.2-1.4,1.7c-0.6,0.5-1.4,0.7-2.3,0.7h-14.3
			L417.4,248.9z"/>
	</g>
	<g id="Mobile_00000003806131652151334260000008565318932455725186_" class="st3">
		<g>
			<g>
				<path class="st1" d="M473.7,302.9v0.4l0,0.5c-0.1,2.7-2,5.3-4.6,6.3c-0.6,0.3-1.3,0.4-2,0.5c-0.7,0.1-1.2,0-1.8,0l-3.4,0
					l-6.9,0.1l-27.5,0.2l-55,0.3l-55,0.2l-27.5,0.1h-7.3l-0.6,0c-0.4,0-0.8-0.1-1.1-0.2c-0.8-0.2-1.5-0.4-2.2-0.8
					c-1.4-0.7-2.5-1.8-3.3-3.2c-0.4-0.7-0.7-1.4-0.8-2.2c-0.1-0.4-0.1-0.8-0.2-1.1l0-1c0-0.7-0.3-1.5-0.7-2.1
					c-0.4-0.6-1-1.1-1.7-1.4c-0.3-0.1-0.7-0.2-1.1-0.3c-0.1,0-0.2,0-0.3,0c-0.1,0-0.2,0-0.4,0h-0.9l-55-0.2l-55-0.4
					c-18.3-0.1-36.7-0.3-55-0.5c-18-0.2-35.9-0.4-53.9-0.7l3.5,6.1l-15.9-6.5l15.9-6.5l-3.5,6.1c18-0.3,35.9-0.5,53.9-0.7
					c18.3-0.2,36.6-0.4,55-0.5l55-0.4l55-0.2h0.9c0.1,0,0.3,0,0.5,0c0.2,0,0.4,0,0.6,0c0.8,0.1,1.5,0.3,2.2,0.6
					c1.4,0.6,2.7,1.6,3.6,2.9c0.9,1.3,1.4,2.8,1.5,4.3l0,0.8c0,0.2,0,0.4,0.1,0.5c0.1,0.4,0.2,0.7,0.4,1c0.4,0.6,0.9,1.2,1.6,1.5
					c0.3,0.2,0.7,0.3,1,0.4c0.2,0,0.4,0.1,0.6,0.1l0.3,0h7.3l27.5,0.1l55,0.2l55,0.3l27.5,0.2l6.9,0.1l3.4,0c1.2,0,2.1,0.1,2.9-0.3
					c1.7-0.6,3-2.3,3.2-4.2l0-0.3v-0.4l0-2.6l0-3.4l0.2-27.5l0.1-13.7l0-13.8l0.1-27.5l0-3.4v-1.7c0-0.6,0-1.1,0-1.6
					c-0.2-2.1-1.8-3.9-3.7-4.5c-0.5-0.1-1-0.3-1.5-0.3c-0.5,0-1.1,0-1.7,0l-3.4,0l-6.9,0l-27.5,0.1l-27.5,0.3l-55,0.6l-27.5,0.1
					l-13.7,0l-6.9,0h-0.9c-0.3,0-0.6,0-0.8,0c-0.4,0-0.8,0.1-1.2,0.2c-0.8,0.2-1.5,0.7-2,1.3c-0.5,0.6-0.9,1.4-1,2.2
					c0,0.2,0,0.4,0,0.6v0.9l0,1.7l0,6.9l0,4.8c0.7,0.1,1.3,0.4,1.7,0.8c0.5,0.5,0.8,1.2,0.8,2v48.5c0,1.6-1.2,2.8-2.8,2.9
					c0,3.2,0,6.4-0.1,9.7l0,3.4c0,0.5,0,1.2,0,1.7c0,0.4,0.1,0.9,0.2,1.3c0.5,1.7,2.1,3.1,3.9,3.3c0.2,0,0.4,0,0.7,0l0.9,0l1.7,0
					l3.4,0l6.9,0.1c17.6,0.1,35.2,0.4,52.8,0.7l-2.3-5.5l14,5.9l-14,5.9l2.3-5.5c-17.6,0.3-35.2,0.6-52.8,0.7l-6.9,0.1l-3.4,0
					l-1.7,0l-0.9,0c-0.3,0-0.7,0-1,0c-2.8-0.3-5.3-2.3-6.1-5c-0.2-0.7-0.4-1.3-0.4-2c0-0.7,0-1.2,0-1.8l0-3.4
					c-0.1-9.2-0.1-18.3-0.2-27.5l-0.1-27.5l-0.1-13.7l0-6.9l0-1.7v-0.9c0-0.3,0-0.7,0.1-1.1c0.2-1.5,0.8-2.9,1.7-4
					c0.9-1.1,2.2-2,3.6-2.5c0.7-0.2,1.4-0.4,2.2-0.4c0.4,0,0.6,0,0.9,0h0.9l6.9,0l13.7,0l27.5,0.1l55,0.6l27.5,0.3l27.5,0.2l6.9,0
					l3.4,0c0.6,0,1.1,0,1.7,0c0.6,0,1.2,0.1,1.8,0.3c2.4,0.8,4.3,3,4.5,5.5c0.1,0.7,0.1,1.2,0.1,1.8l0,1.7l0,3.4l0.1,27.5l0,13.8
					l0.1,13.7l0.2,27.5l0,3.4l0,1.7L473.7,302.9z"/>
			</g>
		</g>
		<circle class="st1" cx="462.5" cy="255.8" r="6"/>
	</g>
</g>
<g id="LogoEdge" class="st2">
	<g class="st3">
		<g>
			<path class="st5" d="M49.6,297c73.3-1.3,146.6-1.7,219.9-1.9l0.9,0c0.3,0,0.7,0,1.1,0.1c0.8,0.1,1.5,0.3,2.2,0.6
				c1.4,0.6,2.7,1.6,3.6,2.9c0.9,1.3,1.4,2.8,1.5,4.3l0,0.7c0,0.2,0,0.4,0.1,0.5c0.1,0.4,0.2,0.7,0.4,1c0.4,0.6,0.9,1.2,1.6,1.5
				c0.3,0.2,0.7,0.3,1,0.4c0.2,0,0.4,0.1,0.6,0.1l0.3,0l0.4,0l6.9,0l27.5,0l55,0.2l55,0.3L455,308l6.9,0.1l3.4,0
				c1.2,0,2.1,0.1,2.9-0.3c1.7-0.6,3-2.3,3.2-4.2l0-0.3l0-0.4l0-0.9l0-1.7l0-3.4l0.2-27.5l0.1-13.7l0-13.7l0.1-27.5l0-3.4l0-1.7
				c0-0.6,0-1.1-0.1-1.6c-0.2-2.1-1.8-3.9-3.7-4.5c-0.5-0.1-1-0.3-1.5-0.3c-0.5,0-1.1,0-1.7,0l-3.4,0l-6.9,0l-27.5,0.2l-27.5,0.3
				l-55,0.6l-27.5,0.1l-13.7,0l-6.9,0l-0.9,0c-0.3,0-0.6,0-0.8,0c-0.4,0-0.8,0.1-1.2,0.2c-0.8,0.2-1.5,0.7-2,1.4
				c-0.5,0.6-0.9,1.4-1,2.2c0,0.2,0,0.4,0,0.7l0,0.9l0,1.7l0,6.9l-0.1,13.7l-0.1,27.5c0,9.2-0.1,18.3-0.2,27.5l0,3.4
				c0,0.6,0,1.2,0,1.7c0,0.5,0.1,0.9,0.2,1.3c0.5,1.7,2.2,3.1,4,3.3c0.2,0,0.4,0,0.7,0l0.9,0l1.7,0l3.4,0l6.9,0.1
				c9.2,0.1,18.3,0.2,27.5,0.4c9.2,0.1,18.3,0.3,27.5,0.5l0.2,0v0.4l-0.2,0c-9.2,0.2-18.3,0.3-27.5,0.5c-9.2,0.1-18.3,0.3-27.5,0.4
				l-6.9,0.1l-3.4,0l-1.7,0l-0.9,0c-0.3,0-0.7,0-1,0c-2.7-0.3-5.2-2.3-6.1-4.9c-0.2-0.7-0.4-1.3-0.4-2c0-0.7,0-1.2,0-1.8l0-3.4
				c-0.1-9.2-0.2-18.3-0.2-27.5l-0.1-27.5l-0.1-13.7l0-6.9l0-1.7l0-0.9c0-0.3,0-0.7,0.1-1.1c0.2-1.5,0.8-2.9,1.7-4
				c0.9-1.1,2.2-2,3.6-2.5c0.7-0.2,1.4-0.4,2.2-0.4c0.4,0,0.6,0,0.9,0l0.9,0l6.9,0l13.7,0l27.5,0.1l55,0.6l27.5,0.3l27.5,0.2l6.9,0
				l3.4,0c0.6,0,1.1,0,1.7,0c0.6,0,1.3,0.1,1.9,0.3c2.4,0.8,4.3,3,4.6,5.5c0,0.3,0,0.6,0.1,0.9l0,0.9l0,1.7l0,3.4l0.1,27.5l0,13.7
				l0.1,13.7l0.2,27.5l0,3.4l0,1.7l0,0.9l0,0.4l0,0.5c-0.1,2.7-2,5.3-4.6,6.3c-0.6,0.3-1.3,0.4-2,0.5c-0.7,0.1-1.2,0-1.8,0l-3.4,0
				l-6.9,0.1l-27.5,0.2l-55,0.3l-55,0.2l-27.5,0l-6.9,0l-0.4,0l-0.6,0c-0.4,0-0.8-0.1-1.1-0.1c-0.8-0.2-1.5-0.4-2.2-0.8
				c-1.4-0.7-2.5-1.8-3.3-3.2c-0.4-0.7-0.7-1.4-0.9-2.2c-0.1-0.4-0.1-0.8-0.2-1.1l-0.1-1c0-0.7-0.3-1.5-0.7-2.1
				c-0.4-0.6-1-1.1-1.7-1.4c-0.3-0.1-0.7-0.2-1.1-0.3c-0.2,0-0.3,0-0.6,0l-0.9,0c-73.3-0.2-146.6-0.7-219.9-1.9l-0.2,0V297L49.6,297
				z"/>
			<g>
				<polygon class="st5" points="38.3,297.2 54.2,303.7 50.4,297.2 54.2,290.7 				"/>
			</g>
			<g>
				<polygon class="st5" points="358.6,303.6 361.1,297.6 358.6,291.7 372.7,297.6 				"/>
			</g>
		</g>
	</g>
	<path class="st6" d="M290.8,276.9L290.8,276.9c-1.4,0-2.5-1.1-2.5-2.5v-49.1c0-1.4,1.1-2.5,2.5-2.5h0c1.4,0,2.5,1.1,2.5,2.5v49.1
		C293.3,275.8,292.2,276.9,290.8,276.9z"/>
</g>
</svg>
