<?xml version="1.0" encoding="utf-8"?>
<!-- Generator: Adobe Illustrator 27.4.0, SVG Export Plug-In . SVG Version: 6.00 Build 0)  -->
<svg version="1.1" id="Calque_1" xmlns="http://www.w3.org/2000/svg" xmlns:xlink="http://www.w3.org/1999/xlink" x="0px" y="0px"
	 viewBox="0 0 512 512" style="enable-background:new 0 0 512 512;" xml:space="preserve">
<style type="text/css">
	.st0{fill:#4A696F;}
	.st1{fill:#E1EBF0;}
</style>
<g>
	<path class="st0" d="M511.4,322.5C479.9,434.1,376.8,512,260.6,512c-71.8,0-137-29.1-184.3-76.3C29.1,388.4,0,323.1,0,251.4
		C0,135.2,77.9,32.1,189.5,0.6c6.4-1.8,13.5,0.9,17.2,6.7c3.7,5.8,2.8,13.2-1.5,18.4c-33.4,36.8-51.8,84.3-51.8,133.7
		c0,54.9,22.4,104.9,58.6,140.7c35.9,36.2,85.8,58.6,140.7,58.6c49.4,0,96.9-18.4,133.7-51.8c5.2-4.6,12.6-5.2,18.4-1.5
		S513.3,316.1,511.4,322.5z"/>
	<path class="st1" d="M398.6,188.5c0,5.8-3.1,11.3-8.3,13.8l-36.5,18.1h0l-18.1,36.5c-0.1,0.3-0.3,0.6-0.5,1
		c-0.4,0.6-0.8,1.2-1.2,1.8c-2.8,3.6-7.4,5.6-12.1,5.6c-5.8,0-11-3.1-13.5-8.3l-17.8-35.6l-0.6-0.9l-36.2-18.1
		c-5.2-2.5-8.6-8-8.6-13.8s3.4-11,8.6-13.5l36.2-18.4l18.4-36.2c5.2-10.4,22.1-10.4,27.3,0l18.1,36.2l0.9,0.6l35.6,17.8
		C395.5,177.5,398.6,182.7,398.6,188.5z"/>
	<path class="st1" d="M490.6,67.4c0,8.6-6.8,15.3-15.3,15.3h-15.3v15.3c0,8.6-6.7,15.3-15.3,15.3c-8.6,0-15.3-6.8-15.3-15.3V82.7
		h-15.3c-8.6,0-15.3-6.8-15.3-15.3c0-8.6,6.7-15.3,15.3-15.3h15.3V36.7c0-8.6,6.8-15.3,15.3-15.3c8.6,0,15.3,6.8,15.3,15.3v15.3
		h15.3C483.8,52.1,490.6,58.8,490.6,67.4z"/>
</g>
</svg>
