<?xml version="1.0" encoding="utf-8"?>
<!-- Generator: Adobe Illustrator 27.4.0, SVG Export Plug-In . SVG Version: 6.00 Build 0)  -->
<svg version="1.1" id="Calque_1" xmlns="http://www.w3.org/2000/svg" xmlns:xlink="http://www.w3.org/1999/xlink" x="0px" y="0px"
	 viewBox="0 0 512 512" style="enable-background:new 0 0 512 512;" xml:space="preserve">
<style type="text/css">
	.st0{fill:#FDBF00;}
</style>
<g>
	<circle class="st0" cx="256" cy="256" r="135"/>
	<path class="st0" d="M271,15v61c0,8.4-6.6,15-15,15s-15-6.6-15-15V15c0-8.4,6.6-15,15-15S271,6.6,271,15z"/>
	<path class="st0" d="M271,436v61c0,8.4-6.6,15-15,15s-15-6.6-15-15v-61c0-8.4,6.6-15,15-15S271,427.6,271,436z"/>
	<path class="st0" d="M153,107.6l-30-52c-4.1-7.2-1.7-16.3,5.5-20.5c7.1-4.2,16.3-1.7,20.5,5.5l30,52c4.1,7.2,1.7,16.4-5.5,20.5
		C166.3,117.2,157.2,114.8,153,107.6z"/>
	<path class="st0" d="M363,471.3l-30-52c-4.1-7.2-1.7-16.4,5.5-20.5c7.1-4.2,16.3-1.7,20.5,5.5l30,52c4.1,7.2,1.7,16.3-5.5,20.5
		C376.3,481,367.2,478.5,363,471.3z"/>
	<path class="st0" d="M92.6,179l-52-30c-7.2-4.1-9.6-13.3-5.5-20.5c4.1-7.2,13.3-9.7,20.5-5.5l52,30c7.2,4.1,9.6,13.3,5.5,20.5
		C108.9,180.7,99.8,183.1,92.6,179z"/>
	<path class="st0" d="M456.3,389l-52-30c-7.2-4.1-9.6-13.3-5.5-20.5c4.1-7.2,13.3-9.6,20.5-5.5l52,30c7.2,4.1,9.6,13.3,5.5,20.5
		C472.7,390.7,463.5,393.1,456.3,389z"/>
	<path class="st0" d="M35.2,383.5c-4.1-7.2-1.7-16.3,5.5-20.5l52-30c7.2-4.1,16.3-1.7,20.5,5.5c4.1,7.2,1.7,16.3-5.5,20.5l-52,30
		C48.5,393.1,39.3,390.7,35.2,383.5z"/>
	<path class="st0" d="M398.9,173.5c-4.1-7.2-1.7-16.3,5.5-20.5l52-30c7.1-4.2,16.3-1.7,20.5,5.5c4.1,7.2,1.7,16.3-5.5,20.5l-52,30
		C412.2,183.1,403,180.7,398.9,173.5z"/>
	<path class="st0" d="M128.5,476.8c-7.2-4.1-9.6-13.3-5.5-20.5l30-52c4.2-7.2,13.3-9.7,20.5-5.5c7.2,4.1,9.6,13.3,5.5,20.5l-30,52
		C144.8,478.5,135.6,481,128.5,476.8z"/>
	<path class="st0" d="M338.5,113.1c-7.2-4.1-9.6-13.3-5.5-20.5l30-52c4.1-7.2,13.3-9.7,20.5-5.5c7.2,4.1,9.6,13.3,5.5,20.5l-30,52
		C354.8,114.8,345.6,117.2,338.5,113.1z"/>
	<path class="st0" d="M76,271H15c-8.3,0-15-6.7-15-15s6.7-15,15-15h61c8.3,0,15,6.7,15,15S84.3,271,76,271z"/>
	<path class="st0" d="M497,271h-61c-8.3,0-15-6.7-15-15s6.7-15,15-15h61c8.3,0,15,6.7,15,15S505.3,271,497,271z"/>
</g>
</svg>
