<?xml version="1.0" encoding="utf-8"?>
<!-- Generator: Adobe Illustrator 27.4.0, SVG Export Plug-In . SVG Version: 6.00 Build 0)  -->
<svg version="1.1" id="Layer_1" xmlns="http://www.w3.org/2000/svg" xmlns:xlink="http://www.w3.org/1999/xlink" x="0px" y="0px"
	 viewBox="0 0 512 512" style="enable-background:new 0 0 512 512;" xml:space="preserve">
<style type="text/css">
	.st0{fill:#ED87C0;}
	.st1{fill:#49CFAE;}
	.st2{fill:#FB6E52;}
	.st3{fill:#FFCE54;}
	.st4{fill:#646D78;}
	.st5{fill:#E7E9EE;}
	.st6{fill:#434A54;}
</style>
<g>
	<g>
		<g>
			<path class="st0" d="M511.9,261.4h-93.4c-1.8,56-31.8,104.7-76.4,132.6l50.9,78.3C463.1,427.8,510.1,350.1,511.9,261.4z"/>
		</g>
		<g>
			<path class="st1" d="M256.1,418.7c-46,0-87.4-19.2-117-49.9l-68.8,63.1c46.6,49.3,112.6,80.1,185.8,80.1
				c50.4,0,97.4-14.6,137-39.8l-50.9-78.3C317.2,409.5,287.8,418.7,256.1,418.7L256.1,418.7z"/>
		</g>
		<g>
			<path class="st2" d="M256.1,93.4V0c0,0,0,0-0.1,0C172.4,0,98.2,40.2,51.4,102.2l73.8,57.4C154.9,119.5,202.3,93.4,256.1,93.4
				L256.1,93.4z"/>
		</g>
		<g>
			<path class="st3" d="M93.4,256c0-36.2,11.9-69.4,31.8-96.4l-73.8-57.4C19.2,145,0.1,198.3,0.1,256c0,68.2,26.7,130.1,70.2,175.9
				l68.8-63.1C110.8,339.5,93.4,299.8,93.4,256z"/>
		</g>
	</g>
	<g>
		<path class="st4" d="M502.9,45.6c0,11.5-4.4,23.2-13.3,32.1l-43.2,43.1l-64.1-64.2l43.1-43.1c17.7-17.8,46.4-17.8,64.2-0.1
			C498.5,22.3,502.9,33.9,502.9,45.6z"/>
	</g>
	<g>
		<path class="st5" d="M421.4,148.6L274.8,295.2c-10,10.1-23.4,16.2-37.5,17.3c-14.2,1.1-27.5,7.2-37.5,17.3L187.5,342
			c-8.7,8.6-23.4,7.6-30.6-3.2c-5.3-7.9-3.6-18.6,3.2-25.4l11.6-11.6c10.1-10.1,16.2-23.4,17.3-37.6c1-14.2,7.2-27.5,17.3-37.6
			l75.7-75.8L352.7,80L421.4,148.6z"/>
	</g>
	<g>
		<path class="st6" d="M452.4,152.6c-3.8,3.8-8.6,5.6-13.5,5.6s-9.8-1.8-13.5-5.6l-76.5-76.5c-7.4-7.4-7.5-19.6,0-27.1
			c3.8-3.8,8.6-5.6,13.6-5.7c4.9,0,9.8,1.9,13.5,5.6l76.5,76.5C459.9,133,459.8,145,452.4,152.6L452.4,152.6z"/>
	</g>
	<g>
		<path class="st2" d="M328.2,241.8l-53.4,53.4c-10,10.1-23.4,16.2-37.5,17.3c-14.2,1.1-27.5,7.2-37.5,17.3L187.5,342
			c-8.7,8.6-23.4,7.6-30.6-3.2c-5.3-7.9-3.6-18.6,3.2-25.4l11.6-11.6c10.1-10.1,16.2-23.4,17.3-37.6c1-14.2,7.2-27.5,17.3-37.6
			l75.7-75.8c5.9,8.3,11,16.7,10.5,26.6c-0.5,8-4.9,15.8-3.2,23.7c1.4,6.2,6.2,11,11.5,14.4c5.3,3.5,11.1,6.1,16.1,10
			C322,229.8,326,235.4,328.2,241.8L328.2,241.8z"/>
	</g>
</g>
</svg>
