<svg id="Capa_1" enable-background="new 0 0 512 512" height="512" viewBox="0 0 512 512" width="512" xmlns="http://www.w3.org/2000/svg"><g><g id="Layer_2_00000143593047146926998820000018062260645460990875_"><g id="Layer_1-2_00000146501482824353324880000012584542439768180357_"><path id="responsive_web_design" d="m483 239.3h-8.5v-158.5c0-18.9-15.4-34.3-34.3-34.3h-300.6c-18.9 0-34.3 15.4-34.3 34.3v112.8h-66.4c-21.4 0-38.8 17.3-38.9 38.8v194.3c0 21.5 17.4 38.9 38.9 38.9h113.7c21.5 0 38.9-17.4 38.9-38.9v-92h56.1v35.9h-23.6c-4.3.2-7.5 3.9-7.3 8.2.2 3.9 3.4 7.1 7.3 7.3h131.9c4.3 0 7.7-3.5 7.7-7.8s-3.5-7.7-7.7-7.7h-23.5v-35.8h58.1v59c0 16 13 29 29.1 29.1h63.4c16 0 29-13 29-29.1v-125.4c0-16.1-13-29-29-29.1zm-362.1-158.5c0-10.3 8.4-18.7 18.7-18.7h300.6c10.4 0 18.7 8.4 18.8 18.7v158.5h-39.5c-16.2.1-29.3 13.4-29.2 29.6 0 .7 0 1.5.1 2.2h-199v-38.9c0-21.5-17.4-38.9-38.9-38.9h-31.6zm54.8 345.9c0 12.8-10.4 23.2-23.3 23.2h-113.5c-12.9 0-23.3-10.4-23.3-23.2v-194.4c0-12.9 10.5-23.3 23.3-23.2h113.7c12.8 0 23.2 10.4 23.3 23.3zm141.1-56.2h-53.8v-35.9h53.9zm7.8-51.3h-133.2v-32.5h199.1v32.5zm171.8 74.5c0 7.5-6.1 13.5-13.5 13.6h-63.4c-7.5 0-13.5-6.1-13.5-13.6v-125.3c0-7.5 6.1-13.5 13.5-13.5h63.5c7.5 0 13.5 6 13.5 13.5z"/></g></g></g></svg>