<?xml version="1.0" encoding="utf-8"?>
<!-- Generator: Adobe Illustrator 27.4.0, SVG Export Plug-In . SVG Version: 6.00 Build 0)  -->
<svg version="1.1" id="Layer_1" xmlns="http://www.w3.org/2000/svg" xmlns:xlink="http://www.w3.org/1999/xlink" x="0px" y="0px"
	 viewBox="0 0 512 512" style="enable-background:new 0 0 512 512;" xml:space="preserve">
<style type="text/css">
	.st0{fill:#7A8E9B;}
	.st1{fill:#E2E2E2;}
	.st2{fill:#525C6B;}
	.st3{fill:#DB5743;}
	.st4{fill:#FFFFFF;}
</style>
<g>
	<g>
		<path class="st0" d="M108.7,295.7c-2.8,15.5,7.6,30.3,23.1,33.1c1.4,0.3,2.8,0.4,4.3,0.4h310c15.7-0.3,28.2-13.4,27.9-29.1
			c0-1.5-0.2-2.9-0.4-4.4H108.7z"/>
		<path class="st1" d="M446,48H136c-15.1,0-27.4,12.3-27.4,27.4v220.3h364.8V75.4C473.3,60.3,461.1,48.1,446,48z"/>
		<path class="st2" d="M255.2,329.2h71.6v37h-71.6L255.2,329.2z"/>
		<path class="st0" d="M343,366.1H239c-13.3,0-24,10.7-24,24h152C367,376.9,356.2,366.1,343,366.1z"/>
		<path class="st3" d="M387,110.2V75.8h-34.4l10.1,10.1L205.1,243.6L195,233.5v34.4h34.4l-10.1-10.1l157.6-157.7L387,110.2z"/>
	</g>
	<g>
		<path class="st2" d="M16,199.7h149.3c8.8,0,16,7.2,16,16V448c0,8.8-7.2,16-16,16H16c-8.8,0-16-7.2-16-16V215.7
			C0,206.8,7.2,199.7,16,199.7z"/>
		<path class="st1" d="M18.7,231.8h144v200h-144L18.7,231.8z"/>
		<path class="st4" d="M94.7,216.2c0,2.2-1.8,4-4,4s-4-1.8-4-4s1.8-4,4-4S94.7,214,94.7,216.2z"/>
		<path class="st3" d="M150.7,307.8v-34.4h-34.4l11.5,11.5l-85.6,85.6L30.7,359v34.4H65l-11.5-11.5l85.6-85.6L150.7,307.8z"/>
	</g>
	<g>
		<path class="st2" d="M418.7,246.9H496c8.8,0,16,7.2,16,16V404c0,8.8-7.2,16-16,16h-77.3c-8.8,0-16-7.2-16-16V262.9
			C402.7,254,409.9,246.9,418.7,246.9z"/>
		<path class="st1" d="M417.3,273.4h80v120h-80V273.4z"/>
		<path class="st0" d="M445.1,256.7h29v8h-29V256.7z"/>
		<path class="st3" d="M482.3,317l7.1,7.1v-22.7h-22.7l7.1,7.1l-41.3,41.3l-7.1-7.1v22.7H448l-7.1-7.1L482.3,317z"/>
	</g>
</g>
</svg>
