<?xml version="1.0" encoding="utf-8"?>
<!-- Generator: Adobe Illustrator 27.4.0, SVG Export Plug-In . SVG Version: 6.00 Build 0)  -->
<svg version="1.1" id="Capa_1" xmlns="http://www.w3.org/2000/svg" xmlns:xlink="http://www.w3.org/1999/xlink" x="0px" y="0px"
	 viewBox="0 0 512 512" style="enable-background:new 0 0 512 512;" xml:space="preserve">
<style type="text/css">
	.st0{fill:#E64C3C;}
	.st1{fill:#C03A2B;}
	.st2{fill:#464F5D;}
	.st3{fill:#E6E7E8;}
	.st4{fill:#95A5A5;}
	.st5{fill:#BDC3C7;}
	.st6{fill:#FF5364;}
</style>
<g>
	<path class="st0" d="M512,307.2v184.3c0,11.3-9.2,20.4-20.5,20.5h-471C9.2,512,0,502.8,0,491.5V307.2h225.3v51.2
		c0,11.3,9.2,20.4,20.5,20.5h20.5c11.3,0,20.4-9.2,20.5-20.5v-51.2H512z"/>
	<path class="st1" d="M491.5,10.2V256h-41V41H61.4v215h-41V10.2C20.5,4.6,25.1,0,30.7,0h450.6C486.9,0,491.5,4.6,491.5,10.2z"/>
	<path class="st2" d="M450.6,42v214H305.5L285,235.5l44.1-44.1c3.5-3.3,8.8-3.9,12.9-1.3c12,6.8,27.1,4.8,36.9-5l21.7-21.7
		c12-12,12-31.4,0-43.4l-21.7,21.7c-8,8-21,8-29,0c-8-8-8-21,0-29l21.7-21.7c-12-12-31.4-12-43.4,0l-21.7,21.7
		c-9.8,9.8-11.8,24.8-5,36.9c2.5,4.1,2,9.4-1.3,12.9L256,206.5l-44.1-44.1c-3.3-3.5-3.9-8.8-1.3-12.9c6.8-12,4.8-27.1-5-36.9
		l-21.7-21.7c-12-12-31.4-12-43.4,0l21.7,21.7c8,8,8,21,0,29c-8,8-21,8-29,0l-21.7-21.7c-12,12-12,31.4,0,43.4l21.7,21.7
		c9.8,9.8,24.8,11.8,36.9,5c4.1-2.5,9.4-2,12.9,1.3l44.1,44.1L206.5,256H61.4V42c0.3-0.4,0.7-0.8,1.1-1h386.9
		C449.9,41.2,450.3,41.6,450.6,42z"/>
	<path class="st3" d="M256,206.5l-29,29l-44.1-44.1c-3.5-3.3-8.8-3.9-12.9-1.3c-12,6.8-27.1,4.8-36.9-5l-21.7-21.7
		c-12-12-12-31.4,0-43.4l21.7,21.7c8,8,21,8,29,0c8-8,8-21,0-29l-21.7-21.7c12-12,31.4-12,43.4,0l21.7,21.7
		c9.8,9.8,11.8,24.8,5,36.9c-2.5,4.1-2,9.4,1.3,12.9L256,206.5z"/>
	<path class="st4" d="M400.6,163.3L378.9,185c-9.8,9.8-24.8,11.8-36.9,5c-4.1-2.5-9.4-2-12.9,1.3L264.5,256h-58l93.6-93.6
		c3.3-3.5,3.9-8.8,1.3-12.9c-6.8-12-4.8-27.1,5-36.9l21.7-21.7c12-12,31.4-12,43.4,0l-21.7,21.7c-8,8-8,21,0,29c8,8,21,8,29,0
		l21.7-21.7C412.6,131.9,412.6,151.3,400.6,163.3z"/>
	<path class="st5" d="M286.7,307.2v51.2c0,11.3-9.2,20.4-20.5,20.5h-20.5c-11.3,0-20.4-9.2-20.5-20.5v-51.2H286.7z"/>
	<polygon class="st3" points="305.5,256 264.5,256 285,235.5 	"/>
	<rect x="0" y="256" class="st6" width="512" height="51.2"/>
</g>
</svg>
