<svg id="Capa_1" enable-background="new 0 0 512 512" height="512" viewBox="0 0 512 512" width="512" xmlns="http://www.w3.org/2000/svg"><g><g id="Layer_2_00000032650810659662672700000011025917841469582263_"><g id="Layer_1-2_00000116918103094326391080000010726384925692137625_"><path id="website_optimization" d="m473.143 0h-434.286c-21.46 0-38.857 17.397-38.857 38.857v434.286c0 21.46 17.397 38.857 38.857 38.857h434.286c21.46 0 38.857-17.397 38.857-38.857v-434.286c0-21.46-17.397-38.857-38.857-38.857zm-457.646 38.857c-.025-12.863 10.382-23.312 23.246-23.337h.114 434.286c12.863-.025 23.312 10.382 23.337 23.246v.092 28.114h-480.983zm457.646 457.623h-434.286c-12.863.038-23.322-10.359-23.36-23.223 0-.038 0-.076 0-.114v-390.674h480.983v390.674c.025 12.863-10.382 23.312-23.246 23.337-.03 0-.061 0-.091 0zm-6.309-449.783c-2.975 3.023-7.837 3.063-10.861.088-.029-.029-.059-.058-.088-.088-2.97-3.045-2.97-7.903 0-10.949 7.018-7.039 18.264 4.001 10.949 10.949zm-52.434 2.286c-4.286-.233-7.571-3.896-7.339-8.181.215-3.961 3.378-7.124 7.339-7.339 4.292 0 7.771 3.479 7.771 7.771s-3.479 7.771-7.771 7.771zm-41.44-13.257c3.028 3.042 3.016 7.963-.027 10.99-3.042 3.028-7.963 3.016-10.99-.027-3.017-3.032-3.017-7.932 0-10.964 3.116-2.869 7.913-2.859 11.017.023zm76.594 185.531-35.086-5.6c-.32-.777-.663-1.554-1.006-2.286l20.823-28.8c1.99-2.723 1.99-6.42 0-9.143-7.856-11.007-17.479-20.638-28.48-28.503-2.721-1.997-6.422-1.997-9.143 0l-28.662 20.984c-.777-.366-1.577-.686-2.286-1.006l-5.577-35.109c-.516-3.298-3.085-5.895-6.377-6.446-13.352-2.169-26.968-2.169-40.32 0-3.283.56-5.842 3.155-6.354 6.446l-5.669 35.063-2.286 1.029-28.8-20.891c-2.723-1.99-6.42-1.99-9.143 0-10.972 7.882-20.584 17.502-28.457 28.48-1.975 2.728-1.975 6.415 0 9.143l20.983 28.686-.983 2.286-35.177 5.669c-10.491 2.994-6.857 18.103-8.114 26.56 1.28 8.434-2.286 23.566 8.114 26.537l35.086 5.554c.32.8.64 1.6.983 2.286l-20.869 28.754c-1.975 2.728-1.975 6.415 0 9.143 7.884 10.955 17.486 20.564 28.434 28.457 2.716 2.012 6.427 2.012 9.143 0l28.754-20.869 2.286.983 5.623 35.109c3.017 10.491 17.966 6.857 26.514 8.069 8.571-1.28 23.497 2.4 26.537-8.069l5.669-35.063c.823-.32 1.6-.64 2.286-1.006l28.777 20.891c2.728 1.975 6.415 1.975 9.143 0 10.943-7.877 20.524-17.489 28.366-28.457 1.99-2.723 1.99-6.42 0-9.143l-20.869-28.777c.343-.8.686-1.577 1.006-2.286l35.131-5.646c10.491-2.926 6.857-18.286 8.137-26.537-1.28-8.115 2.378-23.52-8.137-26.492zm-8.091 38.652-33.897 5.394c-2.869.448-5.25 2.458-6.171 5.211-1.143 5.28-7.337 11.634-3.177 17.166l20.183 27.84c-5.054 6.331-10.796 12.08-17.12 17.143l-27.817-20.206c-5.646-4.137-11.429 1.92-17.189 3.177-2.741.927-4.746 3.292-5.211 6.149l-5.394 33.897c-8.05.914-16.178.914-24.229 0l-5.417-33.897c-.442-2.859-2.444-5.232-5.189-6.149-5.966-1.349-11.429-7.291-17.211-3.177l-27.817 20.206c-6.324-5.063-12.066-10.812-17.12-17.143l20.183-27.817c4.16-5.669-1.897-11.429-3.131-17.166-.932-2.751-3.305-4.763-6.171-5.234l-33.897-5.394c-.948-8.056-.948-16.195 0-24.251l33.92-5.371c6.857-1.12 6.857-9.371 9.943-14.354 1.305-2.586 1.049-5.686-.663-8.023l-20.183-27.817c5.054-6.331 10.796-12.08 17.12-17.143l27.817 20.183c5.554 4.183 11.931-2.057 17.189-3.154 2.75-.914 4.761-3.286 5.211-6.149l5.417-33.943c8.05-.914 16.178-.914 24.229 0l5.394 33.943c1.234 6.994 9.143 6.674 14.4 9.966 2.58 1.296 5.668 1.04 8-.663l27.817-20.183c6.326 5.068 12.074 10.817 17.143 17.143l-20.208 27.907c-4.16 5.509 2.057 11.931 3.177 17.189.921 2.741 3.291 4.742 6.149 5.189l33.92 5.371c.941 8.025.941 16.134 0 24.16zm-107.909-54.355c-23.354 0-42.286 18.932-42.286 42.286s18.932 42.286 42.286 42.286 42.286-18.932 42.286-42.286-18.932-42.286-42.286-42.286zm0 68.96c-14.757 0-26.72-11.963-26.72-26.72s11.963-26.72 26.72-26.72c14.757 0 26.72 11.963 26.72 26.72s-11.963 26.72-26.72 26.72zm-108.525 63.292-24.183-3.863 14.354-19.794c5.691-11.566-13.714-23.429-21.303-30.446-6.72-5.874-18.674 8.183-28.914 14.423l-3.863-24.229c-3.68-12.023-26.674-6.857-36.571-6.423-8.823.663-7.314 18.286-10.263 30.629l-19.84-14.377c-11.589-5.714-23.474 13.874-30.423 21.371-5.806 6.743 8.137 18.56 14.423 28.846l-24.183 3.863c-9.28 2.011-6.857 14.286-7.68 21.509.8 7.223-1.6 19.474 7.68 21.486l24.183 3.863-14.446 19.907c-5.691 11.612 13.714 23.429 21.326 30.446 6.697 5.897 18.651-8.16 28.914-14.4l3.863 24.183c2.057 9.326 14.171 6.857 21.486 7.657 7.337-.8 19.474 1.691 21.509-7.657l3.886-24.229 19.817 14.377c11.589 5.714 23.429-13.714 30.446-21.303 5.851-6.857-8.206-18.72-14.4-28.914l24.183-3.863c9.28-1.966 6.857-14.514 7.703-21.486-.824-7.062 1.576-19.611-7.704-21.576zm-8.16 28.594-23.314 3.68c-6.011.914-6.331 7.109-8.823 11.68-4.297 6.08 9.623 18.903 14.514 27.131-3.029 3.646-6.388 7.005-10.034 10.034l-19.086-13.874c-4.731-3.68-9.76.617-14.491 2.057-7.291 1.303-6.514 19.726-8.914 29.417-4.721.434-9.473.434-14.194 0l-3.703-23.314c-.686-5.874-7.497-6.491-11.589-8.8-6.149-4.343-18.88 9.554-27.2 14.491-3.657-3.009-7.017-6.362-10.034-10.011l13.874-19.109c3.703-4.709-.64-9.76-2.011-14.423-1.326-7.406-19.817-6.56-29.463-8.96-.457-4.72-.457-9.474 0-14.194 9.691-2.4 28.114-1.577 29.463-8.914 1.349-4.709 5.714-9.76 2.011-14.446l-13.875-19.108c3.029-3.654 6.388-7.02 10.034-10.057l19.109 13.874c4.571 3.68 9.966-.709 14.469-2.011 7.314-1.303 6.514-19.817 8.914-29.463 4.721-.434 9.473-.434 14.194 0 2.423 9.806 1.6 28.137 8.937 29.44 4.571 1.349 9.806 5.737 14.469 2.057l19.086-13.897c3.647 3.037 7.006 6.404 10.034 10.057l-13.874 19.109c-3.703 4.571.731 10.011 2.057 14.446 1.303 7.314 19.84 6.537 29.44 8.914.457 4.722.485 9.475 0 14.194zm-77.235-40.16c-18.254.013-33.041 14.821-33.028 33.074.013 18.236 14.793 33.016 33.028 33.028 18.254-.013 33.041-14.821 33.028-33.074-.012-18.235-14.792-33.015-33.028-33.028zm0 50.583c-9.682 0-17.531-7.849-17.531-17.531s7.849-17.531 17.531-17.531c9.682 0 17.531 7.849 17.531 17.531s-7.848 17.531-17.531 17.531z"/></g></g></g></svg>