<?xml version="1.0" encoding="utf-8"?>
<!-- Generator: Adobe Illustrator 27.4.0, SVG Export Plug-In . SVG Version: 6.00 Build 0)  -->
<svg version="1.1" id="Calque_1" xmlns="http://www.w3.org/2000/svg" xmlns:xlink="http://www.w3.org/1999/xlink" x="0px" y="0px"
	 viewBox="0 0 512 512" style="enable-background:new 0 0 512 512;" xml:space="preserve">
<style type="text/css">
	.st0{fill:#EDEBEA;}
	.st1{fill:#FFCC73;}
	.st2{fill:#E89236;}
</style>
<g id="Flat_Color">
	<path class="st0" d="M179.2,0H384c56.6,0,102.4,45.8,102.4,102.4v256l0,0H76.8l0,0v-256C76.8,45.8,122.6,0,179.2,0z"/>
	<path class="st1" d="M317.4,184.3l-46.1-61.4c-9.7-12.9-24.8-20.5-41-20.5H92.7C41.5,102.4,0,143.9,0,195.1v224.3
		C0,470.5,41.5,512,92.7,512c0,0,0,0,0,0h326.7c51.2,0,92.7-41.5,92.7-92.7l0,0V297.5c0-51.2-41.5-92.7-92.7-92.7h-60.9
		C342.3,204.8,327.1,197.2,317.4,184.3L317.4,184.3z"/>
	<path class="st2" d="M204.8,230.4H102.4c-14.1,0-25.6-11.5-25.6-25.6c0-14.1,11.5-25.6,25.6-25.6h102.4c14.1,0,25.6,11.5,25.6,25.6
		C230.4,218.9,218.9,230.4,204.8,230.4z"/>
</g>
</svg>
