<?xml version="1.0" encoding="utf-8"?>
<!-- Generator: Adobe Illustrator 27.4.0, SVG Export Plug-In . SVG Version: 6.00 Build 0)  -->
<svg version="1.1" id="Calque_1" xmlns="http://www.w3.org/2000/svg" xmlns:xlink="http://www.w3.org/1999/xlink" x="0px" y="0px"
	 viewBox="0 0 512 512" style="enable-background:new 0 0 512 512;" xml:space="preserve">
<style type="text/css">
	.st0{display:none;}
	.st1{display:inline;}
	.st2{fill:#D9DDDF;}
	.st3{fill:#21B2DF;}
	.st4{fill:#2C3E4A;}
</style>
<g id="LogoLight" class="st0">
	<g id="Lettres" class="st1">
		<path class="st2" d="M86.4,265.7c0.4,0,0.7,0.1,1.1,0.2c0.4,0.1,0.7,0.4,1,0.7l6.1,6.4c-2.7,3.5-6,6.1-10,7.9
			c-4,1.8-8.7,2.6-14.2,2.6c-5,0-9.5-0.9-13.5-2.6c-4-1.7-7.3-4.1-10.1-7.1s-4.9-6.6-6.4-10.7c-1.5-4.1-2.2-8.6-2.2-13.4
			c0-4.9,0.8-9.4,2.5-13.6c1.7-4.1,4.1-7.7,7.1-10.7c3-3,6.7-5.3,10.9-7c4.2-1.7,8.9-2.5,14-2.5c2.5,0,4.8,0.2,7,0.7
			c2.2,0.4,4.2,1,6.1,1.8c1.9,0.8,3.6,1.7,5.2,2.8c1.6,1.1,3,2.3,4.3,3.6l-5.2,6.9c-0.3,0.4-0.7,0.8-1.2,1.2
			c-0.5,0.3-1.1,0.5-1.9,0.5c-0.5,0-1.1-0.1-1.5-0.4c-0.5-0.2-1-0.5-1.5-0.9c-0.5-0.3-1.1-0.7-1.8-1.1c-0.6-0.4-1.4-0.8-2.3-1.1
			c-0.9-0.3-1.9-0.6-3.1-0.9c-1.2-0.2-2.6-0.4-4.2-0.4c-2.8,0-5.3,0.5-7.6,1.5c-2.3,1-4.3,2.4-5.9,4.2c-1.6,1.8-2.9,4-3.8,6.6
			c-0.9,2.6-1.4,5.5-1.4,8.7c0,3.4,0.5,6.4,1.4,9c0.9,2.6,2.2,4.8,3.8,6.6c1.6,1.8,3.4,3.2,5.5,4.1c2.1,0.9,4.4,1.4,6.8,1.4
			c1.4,0,2.7-0.1,3.8-0.2c1.1-0.1,2.2-0.4,3.2-0.7c1-0.3,1.9-0.8,2.8-1.3c0.9-0.5,1.8-1.2,2.7-2c0.4-0.3,0.8-0.5,1.2-0.7
			C85.5,265.8,86,265.7,86.4,265.7z"/>
		<path class="st2" d="M102.8,282.8v-66.7h8.1v27c2-2.1,4.1-3.7,6.5-5c2.4-1.3,5.1-1.9,8.2-1.9c2.5,0,4.7,0.4,6.6,1.2
			c1.9,0.8,3.5,2,4.8,3.5c1.3,1.5,2.3,3.4,2.9,5.5c0.7,2.1,1,4.5,1,7.1v29.2h-8.1v-29.2c0-3.5-0.8-6.2-2.4-8.1
			c-1.6-1.9-4-2.9-7.3-2.9c-2.4,0-4.6,0.6-6.7,1.7c-2.1,1.1-4,2.7-5.7,4.7v33.8H102.8z"/>
		<path class="st2" d="M171.2,236.2c2.7,0,5.3,0.5,7.6,1.4c2.3,0.9,4.3,2.2,6,4c1.7,1.7,3,3.9,4,6.4c1,2.5,1.4,5.5,1.4,8.7
			c0,1.3-0.1,2.1-0.4,2.5c-0.3,0.4-0.8,0.6-1.5,0.6h-30.5c0.1,2.9,0.5,5.4,1.2,7.6c0.7,2.1,1.7,3.9,3,5.4c1.3,1.4,2.8,2.5,4.5,3.2
			c1.7,0.7,3.7,1.1,5.9,1.1c2,0,3.8-0.2,5.2-0.7s2.7-1,3.8-1.5c1.1-0.5,1.9-1,2.6-1.5s1.3-0.7,1.8-0.7c0.7,0,1.2,0.3,1.5,0.8
			l2.3,2.9c-1,1.2-2.2,2.3-3.6,3.1c-1.4,0.9-2.9,1.6-4.5,2.2s-3.2,1-4.9,1.3c-1.7,0.3-3.4,0.4-5,0.4c-3.2,0-6.1-0.5-8.8-1.6
			c-2.7-1.1-5-2.6-6.9-4.7c-1.9-2.1-3.5-4.6-4.5-7.7c-1.1-3-1.6-6.5-1.6-10.5c0-3.2,0.5-6.2,1.5-9c1-2.8,2.4-5.2,4.2-7.2
			c1.8-2,4.1-3.6,6.7-4.8C164.9,236.8,167.9,236.2,171.2,236.2z M171.4,242.2c-3.9,0-7,1.1-9.2,3.4c-2.2,2.2-3.6,5.4-4.2,9.3H183
			c0-1.9-0.3-3.6-0.8-5.1c-0.5-1.6-1.3-2.9-2.3-4s-2.2-2-3.6-2.6C174.9,242.5,173.2,242.2,171.4,242.2z"/>
		<path class="st2" d="M231.8,245.1c-0.2,0.3-0.5,0.6-0.7,0.8c-0.2,0.2-0.6,0.3-1,0.3s-0.9-0.2-1.5-0.6c-0.5-0.4-1.2-0.8-2-1.2
			c-0.8-0.5-1.8-0.9-3-1.2c-1.2-0.4-2.6-0.6-4.3-0.6c-2.2,0-4.2,0.4-5.9,1.2c-1.7,0.8-3.2,2-4.3,3.5c-1.2,1.5-2,3.3-2.6,5.5
			c-0.6,2.1-0.9,4.5-0.9,7.2c0,2.8,0.3,5.2,1,7.4c0.6,2.2,1.5,4,2.7,5.4c1.1,1.5,2.5,2.6,4.2,3.3c1.6,0.8,3.5,1.2,5.5,1.2
			c2,0,3.6-0.2,4.8-0.7c1.3-0.5,2.3-1,3.2-1.6c0.8-0.6,1.5-1.1,2.1-1.6s1.1-0.7,1.6-0.7c0.7,0,1.2,0.3,1.5,0.8l2.3,2.9
			c-2,2.4-4.5,4.2-7.5,5.4c-3,1.1-6.1,1.7-9.5,1.7c-2.9,0-5.5-0.5-8-1.6s-4.6-2.6-6.4-4.6c-1.8-2-3.2-4.5-4.3-7.4
			c-1-2.9-1.6-6.3-1.6-10c0-3.4,0.5-6.6,1.4-9.5s2.3-5.4,4.2-7.5c1.8-2.1,4.1-3.7,6.8-4.9c2.7-1.2,5.8-1.8,9.2-1.8
			c3.2,0,6,0.5,8.5,1.6c2.5,1,4.7,2.5,6.6,4.4L231.8,245.1z"/>
		<path class="st2" d="M251.1,216.1v39.2h2.1c0.6,0,1.1-0.1,1.5-0.2c0.4-0.2,0.8-0.5,1.3-1l14.5-15.5c0.5-0.5,0.9-0.9,1.4-1.2
			c0.5-0.3,1.1-0.5,1.8-0.5h7.3l-16.9,18c-0.4,0.5-0.8,1-1.2,1.4c-0.4,0.4-0.9,0.7-1.4,1c0.5,0.4,1,0.8,1.5,1.2
			c0.4,0.5,0.9,1,1.2,1.6l17.9,22.6h-7.2c-0.7,0-1.2-0.1-1.7-0.4c-0.5-0.3-0.9-0.7-1.3-1.2l-15.1-18.8c-0.5-0.6-0.9-1-1.4-1.2
			c-0.5-0.2-1.1-0.3-2-0.3h-2.3v21.9H243v-66.7H251.1z"/>
		<path class="st3" d="M333.9,270.7c2.1,0,3.9-0.3,5.5-1s3-1.7,4.1-2.9c1.1-1.3,2-2.8,2.6-4.6c0.6-1.8,0.9-3.9,0.9-6.2v-39.1h15.3
			v39.1c0,4-0.7,7.8-2,11.1c-1.3,3.4-3.2,6.3-5.6,8.7c-2.4,2.4-5.4,4.3-8.9,5.7s-7.4,2-11.8,2c-4.4,0-8.4-0.7-11.9-2
			s-6.5-3.3-8.9-5.7c-2.4-2.4-4.3-5.4-5.6-8.7c-1.3-3.4-1.9-7.1-1.9-11.1v-39.1h15.3v39c0,2.3,0.3,4.4,0.9,6.2
			c0.6,1.8,1.4,3.4,2.6,4.7c1.1,1.3,2.5,2.3,4.1,2.9S331.9,270.7,333.9,270.7z"/>
		<path class="st2" d="M384.6,282.8h-11.1l4.3-56.1h11.1L384.6,282.8z"/>
		<path class="st3" d="M417.4,248.9l-20.4-32h15.3c1,0,1.7,0.1,2.2,0.4c0.5,0.3,0.9,0.7,1.2,1.3l13.1,22.2c0.2-0.4,0.3-0.8,0.5-1.1
			c0.2-0.4,0.4-0.7,0.7-1.1l11.5-19.7c0.8-1.3,1.8-1.9,3.1-1.9h14.7l-20.7,31.4l21.1,34.6h-15.3c-1,0-1.8-0.2-2.4-0.7
			s-1.1-1.1-1.5-1.7l-13.2-23.1c-0.2,0.7-0.5,1.2-0.8,1.7l-12.3,21.4c-0.4,0.6-0.8,1.2-1.4,1.7c-0.6,0.5-1.4,0.7-2.3,0.7h-14.3
			L417.4,248.9z"/>
	</g>
	<g id="Mobile" class="st1">
		<g>
			<g>
				<path class="st3" d="M473.7,302.9v0.4l0,0.5c-0.1,2.7-2,5.3-4.6,6.3c-0.6,0.3-1.3,0.4-2,0.5c-0.7,0.1-1.2,0-1.8,0l-3.4,0
					l-6.9,0.1l-27.5,0.2l-55,0.3l-55,0.2l-27.5,0.1h-7.3l-0.6,0c-0.4,0-0.8-0.1-1.1-0.2c-0.8-0.2-1.5-0.4-2.2-0.8
					c-1.4-0.7-2.5-1.8-3.3-3.2c-0.4-0.7-0.7-1.4-0.8-2.2c-0.1-0.4-0.1-0.8-0.2-1.1l0-1c0-0.7-0.3-1.5-0.7-2.1
					c-0.4-0.6-1-1.1-1.7-1.4c-0.3-0.1-0.7-0.2-1.1-0.3c-0.1,0-0.2,0-0.3,0c-0.1,0-0.2,0-0.4,0h-0.9l-55-0.2l-55-0.4
					c-18.3-0.1-36.7-0.3-55-0.5c-18-0.2-35.9-0.4-53.9-0.7l3.5,6.1l-15.9-6.5l15.9-6.5l-3.5,6.1c18-0.3,35.9-0.5,53.9-0.7
					c18.3-0.2,36.6-0.4,55-0.5l55-0.4l55-0.2h0.9c0.1,0,0.3,0,0.5,0c0.2,0,0.4,0,0.6,0c0.8,0.1,1.5,0.3,2.2,0.6
					c1.4,0.6,2.7,1.6,3.6,2.9c0.9,1.3,1.4,2.8,1.5,4.3l0,0.8c0,0.2,0,0.4,0.1,0.5c0.1,0.4,0.2,0.7,0.4,1c0.4,0.6,0.9,1.2,1.6,1.5
					c0.3,0.2,0.7,0.3,1,0.4c0.2,0,0.4,0.1,0.6,0.1l0.3,0h7.3l27.5,0.1l55,0.2l55,0.3l27.5,0.2l6.9,0.1l3.4,0c1.2,0,2.1,0.1,2.9-0.3
					c1.7-0.6,3-2.3,3.2-4.2l0-0.3v-0.4l0-2.6l0-3.4l0.2-27.5l0.1-13.7l0-13.8l0.1-27.5l0-3.4v-1.7c0-0.6,0-1.1,0-1.6
					c-0.2-2.1-1.8-3.9-3.7-4.5c-0.5-0.1-1-0.3-1.5-0.3c-0.5,0-1.1,0-1.7,0l-3.4,0l-6.9,0l-27.5,0.1l-27.5,0.3l-55,0.6l-27.5,0.1
					l-13.7,0l-6.9,0h-0.9c-0.3,0-0.6,0-0.8,0c-0.4,0-0.8,0.1-1.2,0.2c-0.8,0.2-1.5,0.7-2,1.3c-0.5,0.6-0.9,1.4-1,2.2
					c0,0.2,0,0.4,0,0.6v0.9l0,1.7l0,6.9l0,4.8c0.7,0.1,1.3,0.4,1.7,0.8c0.5,0.5,0.8,1.2,0.8,2v48.5c0,1.6-1.2,2.8-2.8,2.9
					c0,3.2,0,6.4-0.1,9.7l0,3.4c0,0.5,0,1.2,0,1.7c0,0.4,0.1,0.9,0.2,1.3c0.5,1.7,2.1,3.1,3.9,3.3c0.2,0,0.4,0,0.7,0l0.9,0l1.7,0
					l3.4,0l6.9,0.1c17.6,0.1,35.2,0.4,52.8,0.7l-2.3-5.5l14,5.9l-14,5.9l2.3-5.5c-17.6,0.3-35.2,0.6-52.8,0.7l-6.9,0.1l-3.4,0
					l-1.7,0l-0.9,0c-0.3,0-0.7,0-1,0c-2.8-0.3-5.3-2.3-6.1-5c-0.2-0.7-0.4-1.3-0.4-2c0-0.7,0-1.2,0-1.8l0-3.4
					c-0.1-9.2-0.1-18.3-0.2-27.5l-0.1-27.5l-0.1-13.7l0-6.9l0-1.7v-0.9c0-0.3,0-0.7,0.1-1.1c0.2-1.5,0.8-2.9,1.7-4
					c0.9-1.1,2.2-2,3.6-2.5c0.7-0.2,1.4-0.4,2.2-0.4c0.4,0,0.6,0,0.9,0h0.9l6.9,0l13.7,0l27.5,0.1l55,0.6l27.5,0.3l27.5,0.2l6.9,0
					l3.4,0c0.6,0,1.1,0,1.7,0c0.6,0,1.2,0.1,1.8,0.3c2.4,0.8,4.3,3,4.5,5.5c0.1,0.7,0.1,1.2,0.1,1.8l0,1.7l0,3.4l0.1,27.5l0,13.8
					l0.1,13.7l0.2,27.5l0,3.4l0,1.7L473.7,302.9z"/>
			</g>
		</g>
		<circle class="st3" cx="462.5" cy="255.8" r="6"/>
	</g>
</g>
<g id="LogoDark" class="st0">
	<g id="Lettres_00000093139038932978024250000000041847172897324716_" class="st1">
		<path class="st4" d="M86.4,265.7c0.4,0,0.7,0.1,1.1,0.2c0.4,0.1,0.7,0.4,1,0.7l6.1,6.4c-2.7,3.5-6,6.1-10,7.9
			c-4,1.8-8.7,2.6-14.2,2.6c-5,0-9.5-0.9-13.5-2.6c-4-1.7-7.3-4.1-10.1-7.1s-4.9-6.6-6.4-10.7c-1.5-4.1-2.2-8.6-2.2-13.4
			c0-4.9,0.8-9.4,2.5-13.6c1.7-4.1,4.1-7.7,7.1-10.7c3-3,6.7-5.3,10.9-7c4.2-1.7,8.9-2.5,14-2.5c2.5,0,4.8,0.2,7,0.7
			c2.2,0.4,4.2,1,6.1,1.8c1.9,0.8,3.6,1.7,5.2,2.8c1.6,1.1,3,2.3,4.3,3.6l-5.2,6.9c-0.3,0.4-0.7,0.8-1.2,1.2
			c-0.5,0.3-1.1,0.5-1.9,0.5c-0.5,0-1.1-0.1-1.5-0.4c-0.5-0.2-1-0.5-1.5-0.9c-0.5-0.3-1.1-0.7-1.8-1.1c-0.6-0.4-1.4-0.8-2.3-1.1
			c-0.9-0.3-1.9-0.6-3.1-0.9c-1.2-0.2-2.6-0.4-4.2-0.4c-2.8,0-5.3,0.5-7.6,1.5c-2.3,1-4.3,2.4-5.9,4.2c-1.6,1.8-2.9,4-3.8,6.6
			c-0.9,2.6-1.4,5.5-1.4,8.7c0,3.4,0.5,6.4,1.4,9c0.9,2.6,2.2,4.8,3.8,6.6c1.6,1.8,3.4,3.2,5.5,4.1c2.1,0.9,4.4,1.4,6.8,1.4
			c1.4,0,2.7-0.1,3.8-0.2c1.1-0.1,2.2-0.4,3.2-0.7c1-0.3,1.9-0.8,2.8-1.3c0.9-0.5,1.8-1.2,2.7-2c0.4-0.3,0.8-0.5,1.2-0.7
			C85.5,265.8,86,265.7,86.4,265.7z"/>
		<path class="st4" d="M102.8,282.8v-66.7h8.1v27c2-2.1,4.1-3.7,6.5-5c2.4-1.3,5.1-1.9,8.2-1.9c2.5,0,4.7,0.4,6.6,1.2
			c1.9,0.8,3.5,2,4.8,3.5c1.3,1.5,2.3,3.4,2.9,5.5c0.7,2.1,1,4.5,1,7.1v29.2h-8.1v-29.2c0-3.5-0.8-6.2-2.4-8.1
			c-1.6-1.9-4-2.9-7.3-2.9c-2.4,0-4.6,0.6-6.7,1.7c-2.1,1.1-4,2.7-5.7,4.7v33.8H102.8z"/>
		<path class="st4" d="M171.2,236.2c2.7,0,5.3,0.5,7.6,1.4c2.3,0.9,4.3,2.2,6,4c1.7,1.7,3,3.9,4,6.4c1,2.5,1.4,5.5,1.4,8.7
			c0,1.3-0.1,2.1-0.4,2.5c-0.3,0.4-0.8,0.6-1.5,0.6h-30.5c0.1,2.9,0.5,5.4,1.2,7.6c0.7,2.1,1.7,3.9,3,5.4c1.3,1.4,2.8,2.5,4.5,3.2
			c1.7,0.7,3.7,1.1,5.9,1.1c2,0,3.8-0.2,5.2-0.7s2.7-1,3.8-1.5c1.1-0.5,1.9-1,2.6-1.5s1.3-0.7,1.8-0.7c0.7,0,1.2,0.3,1.5,0.8
			l2.3,2.9c-1,1.2-2.2,2.3-3.6,3.1c-1.4,0.9-2.9,1.6-4.5,2.2s-3.2,1-4.9,1.3c-1.7,0.3-3.4,0.4-5,0.4c-3.2,0-6.1-0.5-8.8-1.6
			c-2.7-1.1-5-2.6-6.9-4.7c-1.9-2.1-3.5-4.6-4.5-7.7c-1.1-3-1.6-6.5-1.6-10.5c0-3.2,0.5-6.2,1.5-9c1-2.8,2.4-5.2,4.2-7.2
			c1.8-2,4.1-3.6,6.7-4.8C164.9,236.8,167.9,236.2,171.2,236.2z M171.4,242.2c-3.9,0-7,1.1-9.2,3.4c-2.2,2.2-3.6,5.4-4.2,9.3H183
			c0-1.9-0.3-3.6-0.8-5.1c-0.5-1.6-1.3-2.9-2.3-4s-2.2-2-3.6-2.6C174.9,242.5,173.2,242.2,171.4,242.2z"/>
		<path class="st4" d="M231.8,245.1c-0.2,0.3-0.5,0.6-0.7,0.8c-0.2,0.2-0.6,0.3-1,0.3s-0.9-0.2-1.5-0.6c-0.5-0.4-1.2-0.8-2-1.2
			c-0.8-0.5-1.8-0.9-3-1.2c-1.2-0.4-2.6-0.6-4.3-0.6c-2.2,0-4.2,0.4-5.9,1.2c-1.7,0.8-3.2,2-4.3,3.5c-1.2,1.5-2,3.3-2.6,5.5
			c-0.6,2.1-0.9,4.5-0.9,7.2c0,2.8,0.3,5.2,1,7.4c0.6,2.2,1.5,4,2.7,5.4c1.1,1.5,2.5,2.6,4.2,3.3c1.6,0.8,3.5,1.2,5.5,1.2
			c2,0,3.6-0.2,4.8-0.7c1.3-0.5,2.3-1,3.2-1.6c0.8-0.6,1.5-1.1,2.1-1.6s1.1-0.7,1.6-0.7c0.7,0,1.2,0.3,1.5,0.8l2.3,2.9
			c-2,2.4-4.5,4.2-7.5,5.4c-3,1.1-6.1,1.7-9.5,1.7c-2.9,0-5.5-0.5-8-1.6s-4.6-2.6-6.4-4.6c-1.8-2-3.2-4.5-4.3-7.4
			c-1-2.9-1.6-6.3-1.6-10c0-3.4,0.5-6.6,1.4-9.5s2.3-5.4,4.2-7.5c1.8-2.1,4.1-3.7,6.8-4.9c2.7-1.2,5.8-1.8,9.2-1.8
			c3.2,0,6,0.5,8.5,1.6c2.5,1,4.7,2.5,6.6,4.4L231.8,245.1z"/>
		<path class="st4" d="M251.1,216.1v39.2h2.1c0.6,0,1.1-0.1,1.5-0.2c0.4-0.2,0.8-0.5,1.3-1l14.5-15.5c0.5-0.5,0.9-0.9,1.4-1.2
			c0.5-0.3,1.1-0.5,1.8-0.5h7.3l-16.9,18c-0.4,0.5-0.8,1-1.2,1.4c-0.4,0.4-0.9,0.7-1.4,1c0.5,0.4,1,0.8,1.5,1.2
			c0.4,0.5,0.9,1,1.2,1.6l17.9,22.6h-7.2c-0.7,0-1.2-0.1-1.7-0.4c-0.5-0.3-0.9-0.7-1.3-1.2l-15.1-18.8c-0.5-0.6-0.9-1-1.4-1.2
			c-0.5-0.2-1.1-0.3-2-0.3h-2.3v21.9H243v-66.7H251.1z"/>
		<path class="st3" d="M333.9,270.7c2.1,0,3.9-0.3,5.5-1s3-1.7,4.1-2.9c1.1-1.3,2-2.8,2.6-4.6c0.6-1.8,0.9-3.9,0.9-6.2v-39.1h15.3
			v39.1c0,4-0.7,7.8-2,11.1c-1.3,3.4-3.2,6.3-5.6,8.7c-2.4,2.4-5.4,4.3-8.9,5.7s-7.4,2-11.8,2c-4.4,0-8.4-0.7-11.9-2
			s-6.5-3.3-8.9-5.7c-2.4-2.4-4.3-5.4-5.6-8.7c-1.3-3.4-1.9-7.1-1.9-11.1v-39.1h15.3v39c0,2.3,0.3,4.4,0.9,6.2
			c0.6,1.8,1.4,3.4,2.6,4.7c1.1,1.3,2.5,2.3,4.1,2.9S331.9,270.7,333.9,270.7z"/>
		<path class="st4" d="M384.6,282.8h-11.1l4.3-56.1h11.1L384.6,282.8z"/>
		<path class="st3" d="M417.4,248.9l-20.4-32h15.3c1,0,1.7,0.1,2.2,0.4c0.5,0.3,0.9,0.7,1.2,1.3l13.1,22.2c0.2-0.4,0.3-0.8,0.5-1.1
			c0.2-0.4,0.4-0.7,0.7-1.1l11.5-19.7c0.8-1.3,1.8-1.9,3.1-1.9h14.7l-20.7,31.4l21.1,34.6h-15.3c-1,0-1.8-0.2-2.4-0.7
			s-1.1-1.1-1.5-1.7l-13.2-23.1c-0.2,0.7-0.5,1.2-0.8,1.7l-12.3,21.4c-0.4,0.6-0.8,1.2-1.4,1.7c-0.6,0.5-1.4,0.7-2.3,0.7h-14.3
			L417.4,248.9z"/>
	</g>
	<g id="Mobile_00000003806131652151334260000008565318932455725186_" class="st1">
		<g>
			<g>
				<path class="st3" d="M473.7,302.9v0.4l0,0.5c-0.1,2.7-2,5.3-4.6,6.3c-0.6,0.3-1.3,0.4-2,0.5c-0.7,0.1-1.2,0-1.8,0l-3.4,0
					l-6.9,0.1l-27.5,0.2l-55,0.3l-55,0.2l-27.5,0.1h-7.3l-0.6,0c-0.4,0-0.8-0.1-1.1-0.2c-0.8-0.2-1.5-0.4-2.2-0.8
					c-1.4-0.7-2.5-1.8-3.3-3.2c-0.4-0.7-0.7-1.4-0.8-2.2c-0.1-0.4-0.1-0.8-0.2-1.1l0-1c0-0.7-0.3-1.5-0.7-2.1
					c-0.4-0.6-1-1.1-1.7-1.4c-0.3-0.1-0.7-0.2-1.1-0.3c-0.1,0-0.2,0-0.3,0c-0.1,0-0.2,0-0.4,0h-0.9l-55-0.2l-55-0.4
					c-18.3-0.1-36.7-0.3-55-0.5c-18-0.2-35.9-0.4-53.9-0.7l3.5,6.1l-15.9-6.5l15.9-6.5l-3.5,6.1c18-0.3,35.9-0.5,53.9-0.7
					c18.3-0.2,36.6-0.4,55-0.5l55-0.4l55-0.2h0.9c0.1,0,0.3,0,0.5,0c0.2,0,0.4,0,0.6,0c0.8,0.1,1.5,0.3,2.2,0.6
					c1.4,0.6,2.7,1.6,3.6,2.9c0.9,1.3,1.4,2.8,1.5,4.3l0,0.8c0,0.2,0,0.4,0.1,0.5c0.1,0.4,0.2,0.7,0.4,1c0.4,0.6,0.9,1.2,1.6,1.5
					c0.3,0.2,0.7,0.3,1,0.4c0.2,0,0.4,0.1,0.6,0.1l0.3,0h7.3l27.5,0.1l55,0.2l55,0.3l27.5,0.2l6.9,0.1l3.4,0c1.2,0,2.1,0.1,2.9-0.3
					c1.7-0.6,3-2.3,3.2-4.2l0-0.3v-0.4l0-2.6l0-3.4l0.2-27.5l0.1-13.7l0-13.8l0.1-27.5l0-3.4v-1.7c0-0.6,0-1.1,0-1.6
					c-0.2-2.1-1.8-3.9-3.7-4.5c-0.5-0.1-1-0.3-1.5-0.3c-0.5,0-1.1,0-1.7,0l-3.4,0l-6.9,0l-27.5,0.1l-27.5,0.3l-55,0.6l-27.5,0.1
					l-13.7,0l-6.9,0h-0.9c-0.3,0-0.6,0-0.8,0c-0.4,0-0.8,0.1-1.2,0.2c-0.8,0.2-1.5,0.7-2,1.3c-0.5,0.6-0.9,1.4-1,2.2
					c0,0.2,0,0.4,0,0.6v0.9l0,1.7l0,6.9l0,4.8c0.7,0.1,1.3,0.4,1.7,0.8c0.5,0.5,0.8,1.2,0.8,2v48.5c0,1.6-1.2,2.8-2.8,2.9
					c0,3.2,0,6.4-0.1,9.7l0,3.4c0,0.5,0,1.2,0,1.7c0,0.4,0.1,0.9,0.2,1.3c0.5,1.7,2.1,3.1,3.9,3.3c0.2,0,0.4,0,0.7,0l0.9,0l1.7,0
					l3.4,0l6.9,0.1c17.6,0.1,35.2,0.4,52.8,0.7l-2.3-5.5l14,5.9l-14,5.9l2.3-5.5c-17.6,0.3-35.2,0.6-52.8,0.7l-6.9,0.1l-3.4,0
					l-1.7,0l-0.9,0c-0.3,0-0.7,0-1,0c-2.8-0.3-5.3-2.3-6.1-5c-0.2-0.7-0.4-1.3-0.4-2c0-0.7,0-1.2,0-1.8l0-3.4
					c-0.1-9.2-0.1-18.3-0.2-27.5l-0.1-27.5l-0.1-13.7l0-6.9l0-1.7v-0.9c0-0.3,0-0.7,0.1-1.1c0.2-1.5,0.8-2.9,1.7-4
					c0.9-1.1,2.2-2,3.6-2.5c0.7-0.2,1.4-0.4,2.2-0.4c0.4,0,0.6,0,0.9,0h0.9l6.9,0l13.7,0l27.5,0.1l55,0.6l27.5,0.3l27.5,0.2l6.9,0
					l3.4,0c0.6,0,1.1,0,1.7,0c0.6,0,1.2,0.1,1.8,0.3c2.4,0.8,4.3,3,4.5,5.5c0.1,0.7,0.1,1.2,0.1,1.8l0,1.7l0,3.4l0.1,27.5l0,13.8
					l0.1,13.7l0.2,27.5l0,3.4l0,1.7L473.7,302.9z"/>
			</g>
		</g>
		<circle class="st3" cx="462.5" cy="255.8" r="6"/>
	</g>
</g>
<g id="LogoEdge">
	<g>
		<path class="st3" d="M420,0l-15.8,37.6l-4.4-16.6L381.6,40c-1.7,1.8-3.8,3.4-6.2,4.4c-2.3,1-5.1,1.4-7.5,1.3L353.5,46
			c-19.1,0.3-38.3,0.7-57.4,0.9c-38.3,0.4-76.6,1-114.9,1.2l-57.4,0.4l-7.2,0l-3.6,0c-1.2,0-2.5,0-3.3,0.1c-3.4,0.3-6.6,2.4-8.2,5.4
			c-0.8,1.5-1.2,3.2-1.2,4.9l0,7.2l0,14.4c0.1,38.3,0,76.6-0.3,114.9l-1.3,114.9l-0.7,57.4l-0.4,57.4c0,19.1-0.2,38.3-0.1,57.4
			l0,7.2c0.1,2.4-0.1,4.9,0.3,6.9c0.8,4.2,3.8,7.9,7.8,9.5c1,0.4,2,0.7,3.1,0.8c1,0.2,2.1,0.1,3.4,0.1l7.2,0l14.4-0.1l28.7-0.1
			l28.7-0.3l57.4-0.6l57.4-0.6l28.7-0.3l0.9,0l0.7,0c0.5,0,0.9-0.1,1.3-0.2c0.9-0.2,1.7-0.5,2.5-0.9c1.6-0.8,3-2,4.1-3.4
			c1.1-1.4,1.7-3.2,1.9-4.9c0.1-0.4,0.1-0.9,0.1-1.3v-1.8l0-3.6l-0.7-114.9c-0.3-76.6-0.7-153.1-0.6-229.7l0.2-57
			c-0.2-1.6-0.7-3.1-1.6-4.4c-0.9-1.3-2.1-2.4-3.5-3.2c-1.5-0.7-2.9-1.1-4.7-1.1l-7.2,0l-26.7-0.2v3.1c0,1.4-1.2,2.6-2.6,2.6H175.7
			c-1.4,0-2.6-1.2-2.6-2.6v-4l-17.4-0.2L141.5,77c-1.1,0-2.5-0.1-3.5,0c-0.9,0-1.9,0.2-2.7,0.4c-1.8,0.5-3.5,1.5-4.8,2.8
			c-1.3,1.3-2.4,3-2.9,4.8c-0.3,0.9-0.5,1.8-0.5,2.8c-0.1,1,0,2.3-0.1,3.5l-0.2,14.4l-0.4,28.7l-0.9,57.4l-1,52.5l13.5-5.7l-14,33.3
			l-14-33.3l13.5,5.7l-1-52.5l-0.9-57.4l-0.4-28.7l-0.2-14.4c0-1.2-0.1-2.3,0-3.7c0-1.4,0.3-2.9,0.6-4.3c0.8-2.8,2.3-5.4,4.3-7.5
			c2-2.1,4.6-3.7,7.4-4.5c1.4-0.4,2.9-0.7,4.3-0.8c1.5-0.1,2.5-0.1,3.7-0.1l14.4-0.2l28.7-0.3l114.9-0.9l28.7-0.2l7.2,0
			c3-0.1,6.3,0.7,9.1,2.1c2.9,1.4,5.3,3.7,7.1,6.3c1.8,2.6,2.9,5.8,3.2,8.9c0,0.7,0.1,1.7,0.1,2.3v1.8l0,3.6l0,7.2l0.1,14.4
			l0.1,28.7c0.1,76.6-0.3,153.1-0.6,229.7l-0.7,114.9l0,3.6l0,1.8c-0.1,0.8,0,1.5-0.2,2.3c-0.4,3-1.6,5.9-3.4,8.2
			c-1.8,2.4-4.2,4.4-6.9,5.6c-1.3,0.7-2.8,1.1-4.3,1.4c-0.7,0.1-1.5,0.3-2.2,0.3l-1.1,0.1l-0.9,0l-28.7-0.3l-57.4-0.6l-57.4-0.6
			l-28.7-0.3l-28.7-0.1l-14.4-0.1l-7.2,0c-1.1,0-2.5,0-3.8-0.2c-1.3-0.2-2.6-0.6-3.8-1c-4.9-2-8.7-6.6-9.6-11.8
			c-0.4-2.7-0.2-5.1-0.3-7.4l0-7.2c0.1-19.1-0.1-38.3-0.1-57.4l-0.4-57.4l-0.7-57.4l-1.3-114.9C92,156.9,91.9,118.6,92,80.4l0-14.4
			l0-7.2c0-3,0.8-6.1,2.2-8.8c2.9-5.4,8.7-9.2,14.8-9.6c1.7-0.1,2.7-0.1,3.9-0.1l3.6,0l7.2,0l57.4,0.4c38.3,0.2,76.6,0.8,114.9,1.2
			c19.1,0.2,38.3,0.5,57.4,0.9l14.4,0.3c4.6,0.3,8.9-1.3,12.1-4.5l19.1-18.3l-16.6-4.4L420,0z"/>
		<path class="st3" d="M223.1,499c-7.9,0-14.2-6.4-14.2-14.2c0-7.9,6.4-14.2,14.2-14.2c7.9,0,14.2,6.4,14.2,14.2
			C237.3,492.6,230.9,499,223.1,499z"/>
	</g>
</g>
</svg>
