<?xml version="1.0" encoding="utf-8"?>
<!-- Generator: Adobe Illustrator 27.4.0, SVG Export Plug-In . SVG Version: 6.00 Build 0)  -->
<svg version="1.1" id="Calque_1" xmlns="http://www.w3.org/2000/svg" xmlns:xlink="http://www.w3.org/1999/xlink" x="0px" y="0px"
	 viewBox="0 0 435 111" style="enable-background:new 0 0 435 111;" xml:space="preserve">
<style type="text/css">
	.st0{fill:#D9DDDF;}
	.st1{fill:#21B2DF;}
</style>
<g id="LogoLight">
	<g id="Lettres">
		<path class="st0" d="M48,65.5c0.4,0,0.7,0.1,1.1,0.2s0.7,0.4,1,0.7l6.1,6.4c-2.7,3.5-6,6.1-10,7.9s-8.7,2.6-14.2,2.6
			c-5,0-9.5-0.9-13.5-2.6s-7.3-4.1-10.1-7.1S3.5,67,2,62.9s-2.2-8.6-2.2-13.4c0-4.9,0.8-9.4,2.5-13.6c1.7-4.1,4.1-7.7,7.1-10.7
			s6.7-5.3,10.9-7s8.9-2.5,14-2.5c2.5,0,4.8,0.2,7,0.7c2.2,0.4,4.2,1,6.1,1.8s3.6,1.7,5.2,2.8s3,2.3,4.3,3.6l-5.3,6.9
			c-0.3,0.4-0.7,0.8-1.2,1.2c-0.5,0.3-1.1,0.5-1.9,0.5c-0.5,0-1.1-0.1-1.5-0.4c-0.5-0.2-1-0.5-1.5-0.9c-0.5-0.3-1.1-0.7-1.8-1.1
			c-0.6-0.4-1.4-0.8-2.3-1.1s-1.9-0.6-3.1-0.9c-1.2-0.2-2.6-0.4-4.2-0.4c-2.8,0-5.3,0.5-7.6,1.5s-4.3,2.4-5.9,4.2
			c-1.6,1.8-2.9,4-3.8,6.6s-1.4,5.5-1.4,8.7c0,3.4,0.5,6.4,1.4,9s2.2,4.8,3.8,6.6c1.6,1.8,3.4,3.2,5.5,4.1s4.4,1.4,6.8,1.4
			c1.4,0,2.7-0.1,3.8-0.2s2.2-0.4,3.2-0.7c1-0.3,1.9-0.8,2.8-1.3s1.8-1.2,2.7-2c0.4-0.3,0.8-0.5,1.2-0.7
			C47.1,65.6,47.6,65.5,48,65.5z"/>
		<path class="st0" d="M64.4,82.6V15.9h8.1v27c2-2.1,4.1-3.7,6.5-5s5.1-1.9,8.2-1.9c2.5,0,4.7,0.4,6.6,1.2s3.5,2,4.8,3.5
			s2.3,3.4,2.9,5.5c0.7,2.1,1,4.5,1,7.1v29.2h-8.1V53.3c0-3.5-0.8-6.2-2.4-8.1c-1.6-1.9-4-2.9-7.3-2.9c-2.4,0-4.6,0.6-6.7,1.7
			c-2.1,1.1-4,2.7-5.7,4.7v33.8L64.4,82.6L64.4,82.6z"/>
		<path class="st0" d="M132.7,36c2.7,0,5.3,0.5,7.6,1.4s4.3,2.2,6,4c1.7,1.7,3,3.9,4,6.4s1.4,5.5,1.4,8.7c0,1.3-0.1,2.1-0.4,2.5
			c-0.3,0.4-0.8,0.6-1.5,0.6h-30.5c0.1,2.9,0.5,5.4,1.2,7.6c0.7,2.1,1.7,3.9,3,5.4c1.3,1.4,2.8,2.5,4.5,3.2s3.7,1.1,5.9,1.1
			c2,0,3.8-0.2,5.2-0.7s2.7-1,3.8-1.5s1.9-1,2.6-1.5s1.3-0.7,1.8-0.7c0.7,0,1.2,0.3,1.5,0.8l2.3,2.9c-1,1.2-2.2,2.3-3.6,3.1
			c-1.4,0.9-2.9,1.6-4.5,2.2s-3.2,1-4.9,1.3s-3.4,0.4-5,0.4c-3.2,0-6.1-0.5-8.8-1.6s-5-2.6-6.9-4.7s-3.5-4.6-4.5-7.7
			c-1.1-3-1.6-6.5-1.6-10.5c0-3.2,0.5-6.2,1.5-9s2.4-5.2,4.2-7.2s4.1-3.6,6.7-4.8C126.4,36.6,129.4,36,132.7,36z M132.9,42
			c-3.9,0-7,1.1-9.2,3.4c-2.2,2.2-3.6,5.4-4.2,9.3h25c0-1.9-0.3-3.6-0.8-5.1c-0.5-1.6-1.3-2.9-2.3-4s-2.2-2-3.6-2.6
			C136.4,42.3,134.7,42,132.9,42z"/>
		<path class="st0" d="M193.4,44.9c-0.2,0.3-0.5,0.6-0.7,0.8s-0.6,0.3-1,0.3s-0.9-0.2-1.5-0.6c-0.5-0.4-1.2-0.8-2-1.2
			c-0.8-0.5-1.8-0.9-3-1.2c-1.2-0.4-2.6-0.6-4.3-0.6c-2.2,0-4.2,0.4-5.9,1.2s-3.2,2-4.3,3.5c-1.2,1.5-2,3.3-2.6,5.5
			c-0.6,2.1-0.9,4.5-0.9,7.2c0,2.8,0.3,5.2,1,7.4c0.6,2.2,1.5,4,2.7,5.4c1.1,1.5,2.5,2.6,4.2,3.3c1.6,0.8,3.5,1.2,5.5,1.2
			s3.6-0.2,4.8-0.7c1.3-0.5,2.3-1,3.2-1.6c0.8-0.6,1.5-1.1,2.1-1.6s1.1-0.7,1.6-0.7c0.7,0,1.2,0.3,1.5,0.8l2.3,2.9
			c-2,2.4-4.5,4.2-7.5,5.4c-3,1.1-6.1,1.7-9.5,1.7c-2.9,0-5.5-0.5-8-1.6s-4.6-2.6-6.4-4.6c-1.8-2-3.2-4.5-4.3-7.4
			c-1-2.9-1.6-6.3-1.6-10c0-3.4,0.5-6.6,1.4-9.5s2.3-5.4,4.2-7.5c1.8-2.1,4.1-3.7,6.8-4.9s5.8-1.8,9.2-1.8c3.2,0,6,0.5,8.5,1.6
			c2.5,1,4.7,2.5,6.6,4.4L193.4,44.9z"/>
		<path class="st0" d="M212.7,15.9v39.2h2.1c0.6,0,1.1-0.1,1.5-0.2c0.4-0.2,0.8-0.5,1.3-1l14.5-15.5c0.5-0.5,0.9-0.9,1.4-1.2
			s1.1-0.5,1.8-0.5h7.3l-17,18c-0.4,0.5-0.8,1-1.2,1.4s-0.9,0.7-1.4,1c0.5,0.4,1,0.8,1.5,1.2c0.4,0.5,0.9,1,1.2,1.6l17.9,22.6h-7.2
			c-0.7,0-1.2-0.1-1.7-0.4s-0.9-0.7-1.3-1.2l-15.1-18.8c-0.5-0.6-0.9-1-1.4-1.2s-1.1-0.3-2-0.3h-2.3v21.9h-8.1V15.8L212.7,15.9
			L212.7,15.9z"/>
		<path class="st1" d="M295.5,70.5c2.1,0,3.9-0.3,5.5-1c1.6-0.7,3-1.7,4.1-2.9c1.1-1.3,2-2.8,2.6-4.6c0.6-1.8,0.9-3.9,0.9-6.2V16.7
			h15.3v39.1c0,4-0.7,7.8-2,11.1c-1.3,3.4-3.2,6.3-5.6,8.7c-2.4,2.4-5.4,4.3-8.9,5.7s-7.4,2-11.8,2c-4.4,0-8.4-0.7-11.9-2
			s-6.5-3.3-8.9-5.7c-2.4-2.4-4.3-5.4-5.6-8.7c-1.3-3.4-1.9-7.1-1.9-11.1V16.7h15.3v39c0,2.3,0.3,4.4,0.9,6.2
			c0.6,1.8,1.4,3.4,2.6,4.7c1.1,1.3,2.5,2.3,4.1,2.9C291.8,70.1,293.5,70.5,295.5,70.5z"/>
		<path class="st0" d="M346.2,82.6h-11.1l4.3-56.1h11.1L346.2,82.6z"/>
		<path class="st1" d="M379,48.7l-20.4-32h15.3c1,0,1.7,0.1,2.2,0.4s0.9,0.7,1.2,1.3l13.1,22.2c0.2-0.4,0.3-0.8,0.5-1.1
			c0.2-0.4,0.4-0.7,0.7-1.1l11.5-19.7c0.8-1.3,1.8-1.9,3.1-1.9h14.7l-20.7,31.4l21.1,34.6H406c-1,0-1.8-0.2-2.4-0.7
			c-0.6-0.5-1.1-1.1-1.5-1.7l-13.2-23.1c-0.2,0.7-0.5,1.2-0.8,1.7l-12.3,21.4c-0.4,0.6-0.8,1.2-1.4,1.7c-0.6,0.5-1.4,0.7-2.3,0.7
			h-14.3L379,48.7z"/>
	</g>
	<g id="Mobile">
		<g>
			<g>
				<path class="st1" d="M435.3,102.7v0.4v0.5c-0.1,2.7-2,5.3-4.6,6.3c-0.6,0.3-1.3,0.4-2,0.5s-1.2,0-1.8,0h-3.4l-6.9,0.1l-27.5,0.2
					l-55,0.3l-55,0.2l-27.5,0.1h-7.3h-0.6c-0.4,0-0.8-0.1-1.1-0.2c-0.8-0.2-1.5-0.4-2.2-0.8c-1.4-0.7-2.5-1.8-3.3-3.2
					c-0.4-0.7-0.7-1.4-0.8-2.2c-0.1-0.4-0.1-0.8-0.2-1.1v-1c0-0.7-0.3-1.5-0.7-2.1s-1-1.1-1.7-1.4c-0.3-0.1-0.7-0.2-1.1-0.3
					c-0.1,0-0.2,0-0.3,0s-0.2,0-0.4,0H231l-55-0.2l-55-0.4c-18.3-0.1-36.7-0.3-55-0.5c-18-0.2-35.9-0.4-53.9-0.7l3.5,6.1l-15.9-6.5
					l15.9-6.5l-3.5,6.1c18-0.3,35.9-0.5,53.9-0.7c18.3-0.2,36.6-0.4,55-0.5l55-0.4l55-0.2h0.9c0.1,0,0.3,0,0.5,0s0.4,0,0.6,0
					c0.8,0.1,1.5,0.3,2.2,0.6c1.4,0.6,2.7,1.6,3.6,2.9s1.4,2.8,1.5,4.3v0.8c0,0.2,0,0.4,0.1,0.5c0.1,0.4,0.2,0.7,0.4,1
					c0.4,0.6,0.9,1.2,1.6,1.5c0.3,0.2,0.7,0.3,1,0.4c0.2,0,0.4,0.1,0.6,0.1h0.3h7.3l27.5,0.1l55,0.2l55,0.3l27.5,0.2l6.9,0.1h3.4
					c1.2,0,2.1,0.1,2.9-0.3c1.7-0.6,3-2.3,3.2-4.2v-0.3v-0.4v-2.6v-3.4l0.2-27.5l0.1-13.7V41.4l0.1-27.5v-3.4V8.8c0-0.6,0-1.1,0-1.6
					c-0.2-2.1-1.8-3.9-3.7-4.5c-0.5-0.1-1-0.3-1.5-0.3s-1.1,0-1.7,0h-3.4h-6.9l-27.5,0.1l-27.5,0.3l-55,0.6l-27.5,0.1H265h-6.9h-0.9
					c-0.3,0-0.6,0-0.8,0c-0.4,0-0.8,0.1-1.2,0.2c-0.8,0.2-1.5,0.7-2,1.3s-0.9,1.4-1,2.2c0,0.2,0,0.4,0,0.6v0.9v1.7v6.9v4.8
					c0.7,0.1,1.3,0.4,1.7,0.8c0.5,0.5,0.8,1.2,0.8,2v48.5c0,1.6-1.2,2.8-2.8,2.9c0,3.2,0,6.4-0.1,9.7v3.4c0,0.5,0,1.2,0,1.7
					c0,0.4,0.1,0.9,0.2,1.3c0.5,1.7,2.1,3.1,3.9,3.3c0.2,0,0.4,0,0.7,0h0.9h1.7h3.4l6.9,0.1c17.6,0.1,35.2,0.4,52.8,0.7L320,91
					l14,5.9l-14,5.9l2.3-5.5c-17.6,0.3-35.2,0.6-52.8,0.7l-6.9,0.1h-3.4h-1.7h-0.9c-0.3,0-0.7,0-1,0c-2.8-0.3-5.3-2.3-6.1-5
					c-0.2-0.7-0.4-1.3-0.4-2s0-1.2,0-1.8v-3.4c-0.1-9.2-0.1-18.3-0.2-27.5l-0.1-27.5l-0.1-13.7v-6.9V8.6V7.7c0-0.3,0-0.7,0.1-1.1
					c0.2-1.5,0.8-2.9,1.7-4s2.2-2,3.6-2.5c0.7-0.2,1.4-0.4,2.2-0.4c0.4,0,0.6,0,0.9,0h0.9h6.9h13.7l27.5,0.1l55,0.6l27.5,0.3
					l27.5,0.2h6.9h3.4c0.6,0,1.1,0,1.7,0c0.6,0,1.2,0.1,1.8,0.3c2.4,0.8,4.3,3,4.5,5.5c0.1,0.7,0.1,1.2,0.1,1.8v1.7v3.4l0.1,27.5
					v13.8l0.1,13.7l0.2,27.5v3.4v1.7L435.3,102.7z"/>
			</g>
		</g>
		<circle class="st1" cx="424.1" cy="55.6" r="6"/>
	</g>
</g>
</svg>
